<svg id="Capa_1" data-name="Capa 1" xmlns="http://www.w3.org/2000/svg" xmlns:xlink="http://www.w3.org/1999/xlink" viewBox="0 0 600 600"><defs><style>.cls-1{fill:none;}.cls-2,.cls-3{opacity:0.1;}.cls-4{fill:#0a34bc;}.cls-5{fill:#5783ff;}.cls-6{fill:#8fb0f9;}.cls-7{fill:#ede416;}.cls-8{fill:#edb93b;}.cls-9{fill:#fff35a;}.cls-10{fill:#bd37dd;}.cls-11{fill:#e578ff;}.cls-12{fill:#eea6ff;}.cls-13{isolation:isolate;}.cls-14{fill:#6632c9;}.cls-15{fill:#9761ff;}.cls-16{fill:#a684f7;}.cls-17{fill:#24b8d1;}.cls-18,.cls-20,.cls-21,.cls-22,.cls-42{fill:#0be1f7;}.cls-19{fill:#9df0f9;}.cls-20{opacity:0.2;}.cls-21,.cls-31{opacity:0.5;}.cls-22,.cls-27{opacity:0.3;}.cls-23,.cls-42{opacity:0.7;}.cls-24{fill:#40ebf4;opacity:0.6;}.cls-25{fill:#39dfe9;opacity:0.5;}.cls-26{fill:#33d4df;opacity:0.4;}.cls-27{fill:#2cc9d5;}.cls-28{fill:#25bdca;opacity:0.2;}.cls-29{fill:#1fb2c0;opacity:0.1;}.cls-30,.cls-31{fill:#18a6b5;}.cls-30{opacity:0;}.cls-32{fill:#5bb0ff;}.cls-33{fill:#3d93ff;}.cls-34{fill:#0e007a;}.cls-35{fill:#160f96;}.cls-36{fill:#ffaa83;}.cls-37{fill:#e84cbe;}.cls-38{fill:url(#linear-gradient);}.cls-39{fill:#f79f7c;}.cls-40{fill:#994e17;}.cls-41{fill:#f98cda;}</style><linearGradient id="linear-gradient" x1="486.47" y1="218.23" x2="481.43" y2="324.16" gradientUnits="userSpaceOnUse"><stop offset="0" stop-color="#fa5fc8"/><stop offset="1" stop-color="#b161cb"/></linearGradient></defs><title>info-ilustration-two</title><rect class="cls-1" width="600" height="600"/><path class="cls-2" d="M569.11,466.44c-4.39-6.71-11.25-13-20.6-18.41-21.56-12.45-51.26-17.26-79.08-14.45-17.58,1.78-34.41,6.59-47.94,14.45-15.66,9.1-24.24,20.74-25.81,32.63-1.95,14.67,6.79,29.73,26.22,40.95,29.5,17,74.23,19.78,108.52,8.25a101,101,0,0,0,18.51-8.25C574.59,506.69,581.29,485,569.11,466.44Z"/><g class="cls-3"><polygon points="86.63 504.31 168.03 551.62 496.64 361.9 415.23 314.6 86.63 504.31"/></g><polygon class="cls-4" points="452.39 310.75 452.4 364.12 424.87 380.43 425.45 326.41 452.39 310.75"/><polygon class="cls-5" points="424.87 323.04 424.87 380.43 397.75 364.78 398.33 310.75 424.87 323.04"/><polygon class="cls-6" points="452.39 310.75 425.45 326.41 398.33 310.75 425.27 295.1 452.39 310.75"/><polygon class="cls-7" points="402.62 293.27 402.62 392.97 375.1 409.29 375.67 308.93 402.62 293.27"/><polygon class="cls-8" points="375.67 308.93 375.1 409.29 347.98 393.64 348.56 293.27 375.67 308.93"/><polygon class="cls-9" points="402.62 293.27 375.67 308.93 348.56 293.27 375.5 277.61 402.62 293.27"/><polygon class="cls-10" points="352.56 265.47 352.56 416.79 325.04 433.1 325.62 280.72 352.56 265.47"/><polygon class="cls-11" points="325.62 280.72 325.04 433.1 297.91 417.44 298.48 265.06 325.62 280.72"/><polygon class="cls-12" points="352.55 265.06 325.62 280.72 298.48 265.06 325.44 249.4 352.55 265.06"/><g class="cls-13"><polygon class="cls-14" points="301.13 243.67 300.56 445.59 273.61 461.25 274.18 259.32 301.13 243.67"/><polygon class="cls-15" points="274.18 259.32 273.61 461.25 246.48 445.59 247.06 243.67 274.18 259.32"/><polygon class="cls-16" points="301.13 243.67 274.18 259.32 247.06 243.67 273.99 228 301.13 243.67"/></g><polygon class="cls-17" points="250.47 322.46 250.47 473.77 222.93 490.09 223.51 337.7 250.47 322.46"/><polygon class="cls-18" points="223.51 337.7 222.93 490.09 195.81 474.43 196.38 322.05 223.51 337.7"/><polygon class="cls-19" points="250.46 322.05 223.51 337.7 196.38 322.05 223.33 306.39 250.46 322.05"/><polygon class="cls-4" points="199.22 408.61 199.22 508.3 171.71 524.63 172.28 424.26 199.22 408.61"/><polygon class="cls-5" points="172.28 424.26 171.71 524.63 144.58 508.97 145.16 408.61 172.28 424.26"/><polygon class="cls-6" points="199.22 408.61 172.28 424.26 145.16 408.61 172.1 392.94 199.22 408.61"/><path class="cls-20" d="M92.84,302.41V169.09s96.66-105.61,357.37-79V223.44S211.46,190.82,92.84,302.41Z"/><path class="cls-21" d="M92.84,302.41V307c118.62-111.58,357.37-79,357.37-79v-4.59S211.46,190.82,92.84,302.41Z"/><path class="cls-21" d="M92.84,169.21v4.59c118.62-111.58,357.37-79,357.37-79v-4.6S211.46,57.62,92.84,169.21Z"/><path class="cls-22" d="M104.13,180.21v18.5C127.6,176.62,155.8,160.2,185.9,148V130.41C128.55,153.55,104.13,180.21,104.13,180.21Z"/><path class="cls-22" d="M104.13,207.77v18.5c23.47-22.09,51.67-38.51,81.77-50.67V158C128.55,181.11,104.13,207.77,104.13,207.77Z"/><path class="cls-22" d="M104.13,235.33v18.49c23.47-22.09,51.67-38.5,81.77-50.66V185.53C128.55,208.67,104.13,235.33,104.13,235.33Z"/><path class="cls-22" d="M104.13,262.89v18.49c23.47-22.09,51.67-38.5,81.77-50.66V213.08C128.55,236.23,104.13,262.89,104.13,262.89Z"/><path class="cls-22" d="M321.46,193.06q7.32-.42,14.36-.66l1.33-36.14c-4.71.25-9.5.54-14.37.9Z"/><path class="cls-22" d="M301.17,194.52c4.56-.4,9.08-.74,13.52-1l.8-21.41c-4.47.43-9,.91-13.55,1.44Z"/><path class="cls-22" d="M241.56,203.84q6.78-1.11,13.41-2.05l-.83-21.41q-6.63,1.14-13.4,2.46Z"/><path class="cls-22" d="M224,206.26c4.5-.71,9-1.38,13.38-2L236.94,193c-4.42.71-8.89,1.46-13.38,2.23Z"/><path class="cls-20" d="M281.53,196.55q6.83-.81,13.54-1.46l2.39-60.77q-6.81.81-13.7,1.8Z"/><path class="cls-20" d="M259.49,199.62q7.25-1.16,14.42-2.11l1.27-34.61q-7.2,1.18-14.43,2.59Z"/><path class="cls-20" d="M354,124.36c52.23-.69,89.35,4.37,89.35,4.37V114.84A792.4,792.4,0,0,0,354,110.58Z"/><path class="cls-20" d="M354,147.33c52.23-.7,89.35,4.37,89.35,4.37V137.8A792.26,792.26,0,0,0,354,133.55Z"/><path class="cls-20" d="M354,170.29c52.23-.69,89.35,4.37,89.35,4.37v-13.9A792.12,792.12,0,0,0,354,156.52Z"/><g class="cls-23"><path class="cls-18" d="M193.76,226.3l-2.29-.08c.09-2.68,1.08-26.32,7.43-30.41a4,4,0,0,1,3.91-.32c3.4,1.41,5.41,4,6.88,6,.92,1.2,1.79,2.34,2.41,2.34h0c.65,0,2-1.06,4.75-5.68,3.12-5.24,5.38-12.51,7.56-19.56,3.46-11.13,6.72-21.65,13.23-23.41a28,28,0,0,1,7.87-.71c5.72.08,9.55.14,12.85-12.14,5.1-19.05,14.71-30.09,25.58-29.44s22,20.39,25.44,29.33c.57,1.5,1.31,1.76,1.82,1.81,3.84.41,11.54-7.92,17.14-15.93,2-2.86,4.13-4.12,6.38-3.73,5.29.92,8.28,10.91,8.82,12.9.48,1.76.73,5.7,1.06,11.15.82,13.15,2.35,37.61,9.57,39.13l-.48,2.25c-8.92-1.88-10.4-25.56-11.38-41.23-.31-4.92-.57-9.16-1-10.69-1.39-5.07-4.17-10.75-7-11.25-1.3-.23-2.68.72-4.12,2.79-2.06,3-12.68,17.76-19.29,16.9-1.17-.15-2.75-.83-3.7-3.27-3.63-9.47-14.24-27.36-23.41-27.87-9.69-.6-18.52,10.1-23.24,27.75-3.75,14-9,13.9-15.09,13.84a24.77,24.77,0,0,0-7.24.63c-5.28,1.43-8.51,11.82-11.63,21.87-2.23,7.17-4.53,14.58-7.78,20-2.84,4.78-4.69,6.69-6.59,6.8s-3-1.44-4.4-3.24-3.11-4.07-5.94-5.24a1.74,1.74,0,0,0-1.78.13C195.6,200.66,194,219.35,193.76,226.3Z"/></g><polygon class="cls-24" points="489.53 61.78 485.65 55.08 489.53 48.38 497.27 48.38 501.13 55.08 497.27 61.78 489.53 61.78"/><polygon class="cls-25" points="489.53 72.23 485.65 65.53 489.53 58.83 497.27 58.83 501.13 65.53 497.27 72.23 489.53 72.23"/><polygon class="cls-26" points="489.53 82.67 485.65 75.97 489.53 69.27 497.27 69.27 501.13 75.97 497.27 82.67 489.53 82.67"/><polygon class="cls-27" points="489.53 93.11 485.65 86.41 489.53 79.72 497.27 79.72 501.13 86.41 497.27 93.11 489.53 93.11"/><polygon class="cls-28" points="489.53 103.56 485.65 96.86 489.53 90.16 497.27 90.16 501.13 96.86 497.27 103.56 489.53 103.56"/><polygon class="cls-29" points="489.53 114 485.65 107.3 489.53 100.61 497.27 100.61 501.13 107.3 497.27 114 489.53 114"/><polygon class="cls-30" points="489.53 124.45 485.65 117.74 489.53 111.05 497.27 111.05 501.13 117.74 497.27 124.45 489.53 124.45"/><polygon class="cls-31" points="489.53 61.78 485.65 55.08 489.53 48.38 497.27 48.38 501.13 55.08 497.27 61.78 489.53 61.78"/><polygon class="cls-24" points="29.38 125.2 25 117.6 29.38 110.01 38.16 110.01 42.54 117.6 38.16 125.2 29.38 125.2"/><polygon class="cls-25" points="29.38 137.03 25 129.44 29.38 121.84 38.16 121.84 42.54 129.44 38.16 137.03 29.38 137.03"/><polygon class="cls-26" points="29.38 148.87 25 141.28 29.38 133.68 38.16 133.68 42.54 141.28 38.16 148.87 29.38 148.87"/><polygon class="cls-27" points="29.38 160.71 25 153.12 29.38 145.52 38.16 145.52 42.54 153.12 38.16 160.71 29.38 160.71"/><polygon class="cls-28" points="29.38 172.55 25 164.96 29.38 157.36 38.16 157.36 42.54 164.96 38.16 172.55 29.38 172.55"/><polygon class="cls-29" points="29.38 184.39 25 176.79 29.38 169.2 38.16 169.2 42.54 176.79 38.16 184.39 29.38 184.39"/><polygon class="cls-30" points="29.38 196.22 25 188.63 29.38 181.03 38.16 181.03 42.54 188.63 38.16 196.22 29.38 196.22"/><polygon class="cls-31" points="29.38 125.2 25 117.6 29.38 110.01 38.16 110.01 42.54 117.6 38.16 125.2 29.38 125.2"/><path class="cls-32" d="M531.7,483.21s4.19,8.66-2.08,11.36-6.28-1.49-17.93,8.07-22.18,5.54-23.87,3.62c-1.25-1.44-1.36-11,24.54-24.15Z"/><path class="cls-33" d="M529.6,494.57c-6.27,2.69-6.27-1.49-17.93,8.07s-22.17,5.54-23.86,3.62a2.08,2.08,0,0,1-.38-1.19c10.89,3.86,16.79-1.57,21.57-5.24s9.08-5.3,16.55-6.92,4.74-7.37,4.74-7.37a3.38,3.38,0,0,1,2-.72C533.21,487.46,534.19,492.61,529.6,494.57Z"/><path class="cls-32" d="M474.22,466.56s3.49,9-3,11.16-6.13-2-18.51,6.65-22.53,3.79-24.05,1.74C427.53,484.58,428.17,475,455,464Z"/><path class="cls-33" d="M471.24,477.72c-6.46,2.19-6.13-2-18.51,6.65s-22.53,3.79-24.05,1.74a1.9,1.9,0,0,1-.31-1.22c10.56,4.7,16.86-.26,21.92-3.54s9.46-4.57,17-5.59,5.29-7,5.29-7a3.36,3.36,0,0,1,2.1-.56C475.37,470.92,476,476.13,471.24,477.72Z"/><path class="cls-34" d="M452.92,286.86s-4,64.55-3.4,88.08-3.08,68.1.69,90.1c1.21,7.11,28.24,9.17,29.68,1.4,4-21.58.39-71.69.39-71.69l12.36-91S466.91,304.54,452.92,286.86Z"/><path class="cls-35" d="M466.67,309.76s13.83,68.87,19.16,91.67,8.17,60.88,17.68,85c2.65,6.73,30,4.13,30.37-2.85,1.15-20-16.91-75.92-16.91-75.92l-3.28-85.72S483.9,323.74,466.67,309.76Z"/><path class="cls-36" d="M402.75,273.94s-20.5-.15-21.94-12.2c-.18-1.47.9-2,5.61-.3,3.1,1.1,4.81,2.94,6.88,1.51,2.35-1.64-3.36-7-1.54-8.06s13,7.06,13,7.06l3.28,1.74.1,10.93Z"/><path class="cls-37" d="M475.11,217.73S469,208.78,462,216.51s-19.33,44.14-23.29,46.8c-2,1.31-33.2-1.71-33.2-1.71s4.37,4.92-2.35,13.54c0,0,39.92,15.49,47.19,7.47C462.77,268.85,479.93,232.39,475.11,217.73Z"/><path class="cls-38" d="M511.89,232.42c-1.25-.9-41.06-23.09-46.15-19.27s-16.83,22.33-13.33,49.43c2.52,19.54-1.85,48.93-1.85,48.93s39.64,30.12,63.13,10.43l-1.8-14.76C507,267.1,528.45,244.31,511.89,232.42Z"/><path class="cls-39" d="M475.2,210.59s2.41,10.91,0,16.67,6.35,7.61,10.51,6.17,10.72-4.32,9.84-8-4.59-15.83-2.19-20.15S475.2,210.59,475.2,210.59Z"/><path class="cls-36" d="M496.36,174.7s10.58,7.27,7.2,20.37c-1.87,7.22-9.06,16-13.78,19.74s-20.46,12.84-25.4,4.21-6.07-33.21,4.63-44.32S496.36,174.7,496.36,174.7Z"/><path class="cls-40" d="M466.67,180.3s12.41,7.57,23.12,7.77,5.93,4,4.93,5.55c-.84,1.33-3.14,9.87.51,6.28,1.39-1.37,4.83-4.63,5.86-1.75s-6.79,10.15-7,12.62c-.19,1.76,18.15-13.85,17.54-27.63s-10.24-21.92-29.09-19c-15.48,2.42-21.74,7.74-21.74,7.74A25.5,25.5,0,0,0,466.67,180.3Z"/><path class="cls-36" d="M397.53,257.17s-10-5.21-7.77-2.38,6.16,8,8.74,8S397.53,257.17,397.53,257.17Z"/><path class="cls-36" d="M469.23,315.13s-18.76,8.28-25-2.11c-.76-1.27,0-2.16,5-2.57,3.28-.28,5.59.7,6.89-1.46,1.47-2.45-3.64-4.08-2.41-5.8s12.43.2,12.43.2l3.7.23,4.59,9.92Z"/><path class="cls-41" d="M512.68,232.72c-2.54-2.08-9.85-4.2-13.06,5.71s.52,48.19-2,52.25c-1.26,2-31,12.09-31,12.09s6,2.68,3.43,13.3c0,0,42.75-2.28,46.08-12.59C521.85,285.82,524.62,242.52,512.68,232.72Z"/><path class="cls-20" d="M445.17,294V415.11s-104.31,83.76-280.06,41.72c0,0-110.77-27-136.89-92.61V243.14s24.5,69.1,165.28,98.42C193.5,341.56,343.62,364.47,445.17,294Z"/><path class="cls-42" d="M333,396.2l-1.29,35.05q6.22-1.54,12-3.25L345,392.69Z"/><path class="cls-42" d="M349.73,406.68,349,426.39c3.75-1.19,7.26-2.41,10.66-3.65l.73-19.62Z"/><path class="cls-21" d="M372.05,358.5c39.85-6.86,62.07-24.66,62.07-24.66V322.71c-19,13.2-41.39,20-62.07,23.26Z"/><path class="cls-21" d="M372.05,376.87c39.85-6.86,62.07-24.66,62.07-24.66V341.08c-19,13.2-41.39,20-62.07,23.26Z"/><path class="cls-21" d="M372.05,399.83c39.85-6.86,62.07-24.66,62.07-24.66V364.05c-19,13.2-41.39,20-62.07,23.26Z"/><path class="cls-21" d="M372.05,418.21c39.85-6.86,62.07-24.66,62.07-24.66V382.42c-19,13.2-41.39,20-62.07,23.26Z"/><path class="cls-21" d="M28.22,243.14s39.62,86.23,199.34,101.4c0,0,128.54,8.93,217.61-50.52v4.12S366.6,354.2,227.09,349.21c0,0-149.69-9-198.87-99.15Z"/><path class="cls-21" d="M28.22,362.56S67.84,448.79,227.56,464c0,0,128.54,8.92,217.61-50.53v4.12s-78.57,56.06-218.08,51.07c0,0-149.69-9-198.87-99.15Z"/><path class="cls-20" d="M182.56,353.76c-38.68-9.52-68.29-21.77-90.95-34.51l-.53,14.87a332.21,332.21,0,0,0,62.83,26.52c57,15.82,106.69,17.87,147.92,13.51l.6-16.54C236.67,364,182.56,353.76,182.56,353.76Z"/><path class="cls-20" d="M181.73,376.71c-38.68-9.52-68.29-21.78-90.94-34.51l-.54,14.87a332.21,332.21,0,0,0,62.83,26.52C210,399.4,259.76,401.46,301,397.11l.6-16.55C235.84,387,181.73,376.71,181.73,376.71Z"/><path class="cls-20" d="M180.73,404.25c-38.67-9.52-68.29-21.78-90.94-34.51l-.54,14.87a332.5,332.5,0,0,0,62.83,26.52C209,426.94,258.78,429,300,424.64l.6-16.54C234.85,414.5,180.73,404.25,180.73,404.25Z"/><path class="cls-20" d="M179.9,427.2c-38.67-9.52-68.29-21.77-90.94-34.51l-.54,14.87a332.5,332.5,0,0,0,62.83,26.52c56.95,15.82,106.69,17.86,147.93,13.52l.59-16.55C234,437.44,179.9,427.2,179.9,427.2Z"/><path class="cls-42" d="M314.29,358.3l-2.79,75.75c5-1,9.82-2,14.54-3.12l2.85-77.51Z"/><path class="cls-21" d="M33.77,270.82v14.1c8.45,21.25,29.54,36.73,49.84,47.26V317.26C42.57,295.58,33.77,270.82,33.77,270.82Z"/><path class="cls-21" d="M33.77,293.78v14.1c8.45,21.25,29.54,36.74,49.84,47.27V340.23C42.57,318.55,33.77,293.78,33.77,293.78Z"/><path class="cls-21" d="M33.77,321.34v14.1c8.45,21.25,29.54,36.74,49.84,47.27V367.79C42.57,346.1,33.77,321.34,33.77,321.34Z"/><path class="cls-21" d="M33.77,344.31v14.1c8.45,21.25,29.54,36.73,49.84,47.26V390.76C42.57,369.07,33.77,344.31,33.77,344.31Z"/></svg>