<svg id="Capa_1" data-name="Capa 1" xmlns="http://www.w3.org/2000/svg" xmlns:xlink="http://www.w3.org/1999/xlink" viewBox="0 0 600 600"><defs><style>.cls-1{fill:#85a9ff;}.cls-2{fill:none;}.cls-3{opacity:0.1;}.cls-4{isolation:isolate;}.cls-5{fill:#4881ff;}.cls-6{fill:#0f4bb7;}.cls-7{fill:#6a96ef;}.cls-8{clip-path:url(#clip-path);}.cls-9{fill:#aecfff;}.cls-10{fill:#dcc9a0;}.cls-11{fill:#584245;}.cls-12{fill:#62494d;}.cls-13{fill:#91bdf2;}.cls-14{fill:#2263d6;}.cls-15{fill:#82b3b8;}.cls-16{fill:#92c8ce;}.cls-17{fill:#24b8d1;}.cls-18{fill:#1c8ea2;}.cls-19{fill:#09aebf;}.cls-20{opacity:0.5;}.cls-21{opacity:0.6;}.cls-22{fill:#6e97ea;}.cls-23{fill:#edb93b;}.cls-24{fill:#ede416;}.cls-25{fill:#752289;}.cls-26{clip-path:url(#clip-path-2);}.cls-27{fill:#972cb1;}.cls-28{fill:#932bac;}.cls-29{fill:#902aa8;}.cls-30{fill:#8c29a4;}.cls-31{fill:#88289f;}.cls-32{fill:#84279b;}.cls-33{fill:#812596;}.cls-34{fill:#7d2492;}.cls-35{fill:#79238d;}.cls-36{fill:#83239b;}.cls-37{fill:#922bab;}.cls-38{fill:#09b4c6;}.cls-39{fill:#0be1f7;}.cls-40{fill:#3d93ff;}.cls-41{fill:#ffaa83;}.cls-42{fill:#5bb0ff;}.cls-43{fill:#0e007a;}.cls-44{fill:#160f96;}.cls-45{fill:url(#linear-gradient);}.cls-46{fill:#ef916c;}.cls-47{fill:#994e17;}</style><clipPath id="clip-path"><path class="cls-1" d="M197.65,50.7l15.66-9.11c2.32-1.34,5.53-1.15,9.06.89l-15.67,9.1C203.15,49.55,200,49.35,197.65,50.7Z"/></clipPath><clipPath id="clip-path-2"><path class="cls-2" d="M256.35,234.45l-12.46,7.24a10,10,0,0,1,1.13-.57,4.72,4.72,0,0,1,4.4.35l12.46-7.24a4.66,4.66,0,0,0-4.4-.34A9.89,9.89,0,0,0,256.35,234.45Z"/></clipPath><linearGradient id="linear-gradient" x1="856.81" y1="211.24" x2="858.33" y2="327.77" gradientTransform="matrix(-0.98, -0.17, -0.17, 0.98, 1028.62, 119.68)" gradientUnits="userSpaceOnUse"><stop offset="0" stop-color="#5ab0ff"/><stop offset="1" stop-color="#3c84f7"/></linearGradient></defs><title>login-ilustration</title><rect class="cls-2" width="600" height="600"/><g class="cls-3"><polygon points="575 473.91 437.9 559.27 25 320.88 167.02 238.35 575 473.91"/></g><g class="cls-4"><polygon class="cls-5" points="432.81 388.95 432.79 400.05 370.36 436.32 370.38 425.22 432.81 388.95"/><polygon class="cls-6" points="370.38 425.22 370.36 436.32 235.05 358.2 235.08 347.1 370.38 425.22"/><polygon class="cls-7" points="432.81 388.95 370.38 425.22 235.08 347.1 297.5 310.83 432.81 388.95"/></g><path class="cls-1" d="M197.65,50.7l15.66-9.11c2.32-1.34,5.53-1.15,9.06.89l-15.67,9.1C203.15,49.55,200,49.35,197.65,50.7Z"/><g class="cls-8"><g class="cls-4"><path class="cls-1" d="M197.65,50.7l15.66-9.11a6.43,6.43,0,0,1,1-.48l-15.67,9.11a5.58,5.58,0,0,0-1,.48Z"/><path class="cls-1" d="M198.67,50.22l15.67-9.11a8.79,8.79,0,0,1,.88-.24L199.56,50a6.47,6.47,0,0,0-.89.24Z"/><path class="cls-1" d="M199.56,50l15.66-9.11a6.26,6.26,0,0,1,.74-.1l-15.68,9.1a6.29,6.29,0,0,0-.72.11Z"/><path class="cls-1" d="M200.28,49.87,216,40.77a4.72,4.72,0,0,1,.65,0L201,49.85c-.24,0-.46,0-.68,0Z"/><path class="cls-1" d="M201,49.85l15.65-9.11a6,6,0,0,1,.6,0l-15.67,9.11Z"/><path class="cls-1" d="M201.54,49.86l15.67-9.11.56.06-15.66,9.11-.57-.06Z"/><path class="cls-1" d="M202.11,49.92l15.66-9.11a5.21,5.21,0,0,1,.57.1L202.66,50l-.55-.09Z"/><path class="cls-1" d="M202.66,50l15.68-9.1a3.82,3.82,0,0,1,.51.11l-15.65,9.1-.54-.11Z"/><path class="cls-1" d="M203.2,50.12,218.85,41l.53.14-15.66,9.11-.52-.15Z"/><path class="cls-1" d="M203.72,50.27l15.66-9.11.51.16-15.68,9.12-.49-.17Z"/><path class="cls-1" d="M204.21,50.44l15.68-9.12.52.2-15.68,9.11-.52-.19Z"/><path class="cls-1" d="M204.73,50.63l15.68-9.11.5.22-15.66,9.11-.52-.22Z"/><path class="cls-1" d="M205.25,50.85l15.66-9.11.52.24-15.67,9.11-.51-.24Z"/><path class="cls-1" d="M205.76,51.09,221.43,42l.52.27-15.66,9.11-.53-.27Z"/><path class="cls-1" d="M206.29,51.36,222,42.25l.42.23-15.67,9.1c-.15-.07-.28-.15-.41-.22Z"/></g></g><path class="cls-5" d="M485.92,398.81l-.07,21.94a14.28,14.28,0,0,1-.25,2.71.23.23,0,0,0,0,.11,10.8,10.8,0,0,1-.71,2.23.06.06,0,0,0,0,0,8.12,8.12,0,0,1-1,1.5c-.1.13-.22.28-.33.4a6,6,0,0,1-1.4,1.16l15.68-9.1a6.59,6.59,0,0,0,1.38-1.15,5.72,5.72,0,0,0,.37-.46,4.19,4.19,0,0,0,.44-.56,6.11,6.11,0,0,0,.49-.87s0,0,0,0,0,0,0-.06c.1-.2.18-.42.27-.64a3.09,3.09,0,0,0,.22-.67c.08-.21.12-.42.19-.65a2.51,2.51,0,0,1,0-.27s0-.05,0-.08,0-.17.05-.26.07-.41.1-.61,0-.4.05-.61,0-.4,0-.6v-.64l.06-21.94Z"/><polygon class="cls-5" points="368.59 400.27 419.17 396.87 379.82 374.16 368.59 400.27"/><g class="cls-4"><polygon class="cls-1" points="360.93 309.38 373.72 301.94 381.41 392.83 368.59 400.27 360.93 309.38"/><polygon class="cls-1" points="287.31 266.88 300.12 259.44 373.72 301.94 360.93 309.38 287.31 266.88"/><polygon class="cls-9" points="360.93 309.38 368.59 400.27 281.8 350.15 287.31 266.88 360.93 309.38"/></g><polygon class="cls-10" points="193.46 229.96 209.13 220.85 501.58 389.71 485.92 398.81 193.46 229.96"/><polygon class="cls-11" points="205.37 65.61 221.05 56.51 220.59 214.32 204.92 223.43 205.37 65.61"/><polygon class="cls-12" points="204.92 223.43 220.59 214.32 488.04 368.73 472.37 377.83 204.92 223.43"/><path class="cls-13" d="M485.92,398.81l-.07,21.94c0,8-5.7,11.33-12.74,7.27l-267-154.18c-7-4.06-12.69-13.92-12.66-21.94l0-21.94Z"/><polygon class="cls-14" points="472.81 220.03 472.37 377.83 204.92 223.43 205.37 65.61 472.81 220.03"/><polygon class="cls-15" points="472.81 220.03 488.48 210.91 488.04 368.73 472.37 377.83 472.81 220.03"/><polygon class="cls-16" points="205.37 65.61 221.05 56.51 488.48 210.91 472.81 220.03 205.37 65.61"/><polygon class="cls-5" points="486.41 227.71 502.07 218.59 501.58 389.71 485.92 398.81 486.41 227.71"/><polygon class="cls-1" points="206.7 51.58 222.37 42.48 489.41 196.66 473.75 205.77 206.7 51.58"/><path class="cls-9" d="M473.75,205.77c7,4.06,12.68,13.86,12.66,21.94l-.49,171.1L193.45,230l.49-171.11c0-8.07,5.73-11.32,12.76-7.27Zm-1.38,172.06.44-157.8L205.37,65.61l-.45,157.82,267.45,154.4Z"/><path class="cls-1" d="M502.07,218.59c0-.18,0-.38,0-.57s0-.41,0-.62,0-.41-.05-.62l-.06-.62c0-.21-.08-.43-.11-.64a.09.09,0,0,0,0-.05c0-.2-.06-.39-.09-.59s-.1-.45-.14-.67-.1-.45-.16-.67-.11-.45-.17-.67-.11-.35-.14-.53a0,0,0,0,1,0,0,.51.51,0,0,0-.05-.12l-.21-.66c-.07-.21-.14-.43-.22-.65s-.15-.41-.24-.61-.16-.42-.25-.62l-.19-.45s0,0,0-.05a.25.25,0,0,0,0-.11c-.08-.2-.18-.41-.27-.61l-.32-.66c-.13-.26-.27-.51-.39-.77s-.31-.58-.49-.86a.08.08,0,0,0,0,0l-.11-.21h0c-.29-.5-.6-1-.94-1.5s-.5-.74-.76-1.09l-.07-.09c-.18-.24-.34-.47-.53-.7s-.32-.4-.49-.6-.32-.39-.49-.57-.32-.38-.49-.56l-.1-.09-.05-.07c-.14-.12-.25-.26-.37-.38s-.36-.35-.53-.52l-.56-.53-.57-.49a3.5,3.5,0,0,0-.3-.24s0,0-.05-.05-.14-.12-.22-.17l-.55-.43-.56-.4-.55-.36-.53-.33a.33.33,0,0,1-.13-.07l-15.66,9.11a17.91,17.91,0,0,1,2.51,1.74l.1.08a25.52,25.52,0,0,1,2.29,2.15.17.17,0,0,1,.06.06,27.56,27.56,0,0,1,2.12,2.55h0l0,0a30.29,30.29,0,0,1,1.85,2.81.25.25,0,0,1,0,.09,29.19,29.19,0,0,1,2.68,6.14v0a27.65,27.65,0,0,1,.72,3.13.09.09,0,0,0,0,0h0a20.29,20.29,0,0,1,.25,3.08Z"/><path class="cls-17" d="M531.25,456.36l3.63-1.4c-1.09-2.84-27.12-69.68-75.95-67.71-24.26,1-35.18-19.24-46.78-40.64C401.6,327.15,390.69,307,369,300.89c-20.47-5.8-34.27-37.85-47.62-68.83-15.53-36.08-30.2-70.15-55.73-70.15h-.15c-15.25.08-23.79,12.93-32,25.36-11,16.59-22.42,33.76-50.39,25.23L132,197l-1.13,3.72,51,15.54c30.72,9.35,43.49-9.85,54.74-26.8,8.06-12.12,15.65-23.56,28.84-23.62h.11c23,0,37.83,34.46,52.18,67.8,13.7,31.82,27.87,64.73,50.12,71,20.14,5.7,30.64,25.09,40.8,43.83,11.66,21.52,23.62,43.82,50.36,42.67C504.89,389.36,531,455.69,531.25,456.36Z"/><path class="cls-18" d="M476.81,386.16c-2.72-1.58-5-.3-5,2.83a10.89,10.89,0,0,0,4.94,8.57c2.73,1.58,5,.31,5-2.84A10.94,10.94,0,0,0,476.81,386.16Z"/><path class="cls-19" d="M486.71,397.84c0,6.29-4.46,8.82-9.95,5.66s-9.9-10.82-9.89-17.1,4.49-8.84,9.95-5.68S486.73,391.55,486.71,397.84Zm-9.93-.28c2.73,1.58,5,.31,5-2.84a10.92,10.92,0,0,0-5-8.56c-2.72-1.58-5-.3-5,2.83a10.89,10.89,0,0,0,4.94,8.57Z"/><path class="cls-18" d="M385.45,309.11c-2.73-1.59-5-.31-5,2.82a10.92,10.92,0,0,0,4.94,8.57c2.73,1.58,5,.31,5-2.84A10.86,10.86,0,0,0,385.45,309.11Z"/><path class="cls-19" d="M395.36,320.79c0,6.28-4.48,8.82-10,5.66s-9.9-10.83-9.87-17.11,4.47-8.84,9.94-5.68S395.37,314.49,395.36,320.79Zm-9.94-.29c2.73,1.58,5,.31,5-2.84a10.86,10.86,0,0,0-4.94-8.55c-2.73-1.59-5-.31-5,2.82a10.92,10.92,0,0,0,4.94,8.57Z"/><path class="cls-18" d="M271.54,160.6c-2.72-1.58-5-.31-5,2.83a10.91,10.91,0,0,0,4.93,8.57c2.74,1.58,5,.31,5-2.84A10.89,10.89,0,0,0,271.54,160.6Z"/><path class="cls-19" d="M281.45,172.29c0,6.28-4.47,8.82-9.95,5.66s-9.9-10.83-9.88-17.11,4.47-8.84,9.93-5.68S281.47,166,281.45,172.29Zm-9.94-.29c2.74,1.58,5,.31,5-2.84a10.89,10.89,0,0,0-5-8.56c-2.72-1.58-5-.31-5,2.83a10.91,10.91,0,0,0,4.93,8.57Z"/><path class="cls-18" d="M130.94,193.52c-2.74-1.58-5-.31-5,2.83a10.94,10.94,0,0,0,4.93,8.57c2.75,1.58,5,.3,5-2.84A11,11,0,0,0,130.94,193.52Z"/><path class="cls-19" d="M140.83,205.2c0,6.29-4.47,8.83-10,5.67S121,200,121,193.76s4.47-8.84,9.94-5.69S140.84,198.91,140.83,205.2Zm-10-.28c2.75,1.58,5,.3,5-2.84a11,11,0,0,0-4.93-8.56c-2.74-1.58-5-.31-5,2.83a10.94,10.94,0,0,0,4.93,8.57Z"/><path class="cls-18" d="M533.08,453.27c-2.73-1.58-5-.31-5,2.83a11,11,0,0,0,4.94,8.57c2.74,1.58,5,.3,5-2.84A10.89,10.89,0,0,0,533.08,453.27Z"/><path class="cls-19" d="M543,465c0,6.29-4.48,8.83-10,5.67s-9.9-10.83-9.88-17.12,4.48-8.84,9.94-5.67S543,458.66,543,465Zm-9.94-.28c2.74,1.58,5,.3,5-2.84a10.88,10.88,0,0,0-4.95-8.56c-2.73-1.58-5-.31-5,2.83a11,11,0,0,0,4.94,8.57Z"/><g class="cls-20"><path class="cls-1" d="M131,182.82c-8-4.65-14.61-.91-14.64,8.35s6.5,20.56,14.54,25.21,14.63.92,14.67-8.36S139,187.48,131,182.82Z"/></g><g class="cls-20"><path class="cls-1" d="M130.62,220.58c-10.07-5.81-18.23-20-18.19-31.53,0-8,4.12-13.22,10.44-13.22a16.73,16.73,0,0,1,8.31,2.53c10.08,5.81,18.25,20,18.22,31.52,0,8-4.13,13.24-10.47,13.24A16.84,16.84,0,0,1,130.62,220.58Zm-17.29-31.53c0,11.29,7.92,25.09,17.73,30.76a16,16,0,0,0,7.87,2.41c5.88,0,9.55-4.73,9.57-12.35,0-11.27-7.94-25.06-17.76-30.74a16,16,0,0,0-7.87-2.41C117,176.72,113.34,181.45,113.33,189.05Z"/></g><g class="cls-21"><path class="cls-1" d="M130.94,190.4c-4.42-2.54-8-.49-8,4.58s3.56,11.27,8,13.82,8,.5,8-4.58S135.36,193,130.94,190.4Z"/></g><path class="cls-1" d="M130.94,191.88c-3.62-2.08-6.55-.41-6.56,3.74a14.36,14.36,0,0,0,6.5,11.28c3.63,2.08,6.56.41,6.57-3.74A14.38,14.38,0,0,0,130.94,191.88Z"/><path class="cls-22" d="M130.92,195.27c-2-1.14-3.59-.22-3.59,2a7.84,7.84,0,0,0,3.56,6.18c2,1.15,3.6.23,3.61-2A7.9,7.9,0,0,0,130.92,195.27Z"/><g class="cls-20"><path class="cls-1" d="M271.57,149.91c-8.05-4.66-14.6-.92-14.63,8.34s6.49,20.56,14.53,25.21,14.64.92,14.66-8.35S279.65,154.56,271.57,149.91Z"/></g><g class="cls-20"><path class="cls-1" d="M271.24,187.67c-10.07-5.82-18.22-20-18.2-31.54,0-8,4.13-13.22,10.46-13.22a16.73,16.73,0,0,1,8.3,2.53c10.08,5.82,18.26,20,18.22,31.53,0,8-4.13,13.23-10.45,13.23A16.86,16.86,0,0,1,271.24,187.67ZM254,156.13c0,11.3,7.93,25.09,17.74,30.76a15.94,15.94,0,0,0,7.88,2.42c5.87,0,9.53-4.74,9.55-12.35,0-11.27-7.94-25.07-17.76-30.74a15.81,15.81,0,0,0-7.86-2.41C257.63,143.81,254,148.53,254,156.13Z"/></g><g class="cls-21"><path class="cls-1" d="M271.55,157.49c-4.41-2.56-8-.5-8,4.57s3.55,11.27,8,13.82,8,.51,8-4.58S276,160,271.55,157.49Z"/></g><path class="cls-1" d="M271.55,159c-3.6-2.08-6.54-.4-6.55,3.74A14.33,14.33,0,0,0,271.51,174c3.61,2.09,6.54.41,6.55-3.74A14.32,14.32,0,0,0,271.55,159Z"/><path class="cls-22" d="M271.54,162.35c-2-1.13-3.58-.22-3.58,2.06a7.88,7.88,0,0,0,3.55,6.18c2,1.14,3.6.22,3.6-2.05A7.86,7.86,0,0,0,271.54,162.35Z"/><g class="cls-20"><path class="cls-1" d="M385.48,298.15c-8.06-4.65-14.62-.91-14.64,8.34s6.49,20.57,14.54,25.21,14.63.92,14.66-8.35S393.55,302.81,385.48,298.15Z"/></g><g class="cls-20"><path class="cls-1" d="M385.15,335.91c-10.07-5.81-18.23-20-18.2-31.53,0-8,4.13-13.22,10.46-13.22a16.66,16.66,0,0,1,8.31,2.53c10.07,5.81,18.24,19.95,18.21,31.52,0,8-4.13,13.24-10.46,13.24A16.85,16.85,0,0,1,385.15,335.91Zm-17.3-31.53c0,11.29,7.93,25.09,17.75,30.75a15.86,15.86,0,0,0,7.87,2.42c5.88,0,9.55-4.73,9.56-12.35,0-11.28-7.94-25.07-17.76-30.74a15.91,15.91,0,0,0-7.86-2.41C371.53,292.05,367.88,296.78,367.85,304.38Z"/></g><g class="cls-21"><path class="cls-1" d="M385.46,305.73c-4.41-2.55-8-.5-8,4.58s3.57,11.27,8,13.81,8,.51,8-4.57S389.89,308.28,385.46,305.73Z"/></g><path class="cls-1" d="M385.46,307.21c-3.61-2.08-6.53-.41-6.54,3.73a14.3,14.3,0,0,0,6.5,11.28c3.61,2.09,6.54.42,6.55-3.74A14.34,14.34,0,0,0,385.46,307.21Z"/><path class="cls-22" d="M385.45,310.6c-2-1.14-3.59-.23-3.59,2a7.86,7.86,0,0,0,3.56,6.18c2,1.14,3.6.23,3.6-2.05A7.89,7.89,0,0,0,385.45,310.6Z"/><g class="cls-20"><path class="cls-1" d="M476.84,375.21c-8.06-4.65-14.62-.91-14.64,8.34s6.48,20.56,14.54,25.22,14.62.91,14.66-8.36S484.9,379.86,476.84,375.21Z"/></g><g class="cls-20"><path class="cls-1" d="M476.5,413c-10.06-5.81-18.22-20-18.19-31.53,0-8,4.13-13.23,10.45-13.23a16.68,16.68,0,0,1,8.31,2.54c10.07,5.81,18.25,19.95,18.21,31.52,0,8-4.12,13.24-10.45,13.24A16.81,16.81,0,0,1,476.5,413Zm-17.29-31.53c0,11.29,7.93,25.09,17.73,30.75a16,16,0,0,0,7.89,2.42c5.87,0,9.53-4.73,9.55-12.34,0-11.28-7.93-25.08-17.76-30.75a15.88,15.88,0,0,0-7.86-2.41C462.89,369.11,459.23,373.83,459.21,381.44Z"/></g><g class="cls-21"><path class="cls-1" d="M476.82,382.79c-4.42-2.55-8-.49-8,4.57s3.57,11.27,8,13.83,8,.5,8-4.58S481.24,385.35,476.82,382.79Z"/></g><path class="cls-1" d="M476.81,384.27c-3.6-2.09-6.54-.41-6.55,3.73a14.37,14.37,0,0,0,6.51,11.28c3.62,2.09,6.55.42,6.56-3.74A14.35,14.35,0,0,0,476.81,384.27Z"/><path class="cls-22" d="M476.81,387.66c-2-1.14-3.59-.23-3.6,2a7.85,7.85,0,0,0,3.57,6.18c2,1.14,3.6.22,3.6-2.05A7.85,7.85,0,0,0,476.81,387.66Z"/><g class="cls-20"><path class="cls-1" d="M533.12,442.32c-8.06-4.66-14.62-.91-14.63,8.34S525,471.22,533,475.88s14.62.91,14.66-8.36S541.18,447,533.12,442.32Z"/></g><g class="cls-20"><path class="cls-1" d="M532.78,480.08c-10.07-5.81-18.22-20-18.2-31.54,0-8,4.13-13.22,10.46-13.22a16.76,16.76,0,0,1,8.31,2.53c10.08,5.82,18.24,20,18.21,31.53,0,8-4.13,13.23-10.46,13.23A16.86,16.86,0,0,1,532.78,480.08Zm-17.3-31.54c0,11.3,7.94,25.09,17.75,30.76a16,16,0,0,0,7.87,2.42c5.88,0,9.55-4.73,9.56-12.35,0-11.27-7.94-25.07-17.76-30.75a16,16,0,0,0-7.86-2.4C519.16,436.22,515.51,440.94,515.48,448.54Z"/></g><g class="cls-21"><path class="cls-1" d="M533.1,449.9c-4.42-2.55-8-.5-8,4.57s3.56,11.28,8,13.83,8,.5,8-4.59S537.52,452.45,533.1,449.9Z"/></g><path class="cls-1" d="M533.09,451.38c-3.6-2.09-6.53-.41-6.55,3.73a14.39,14.39,0,0,0,6.51,11.28c3.61,2.08,6.55.41,6.55-3.74A14.36,14.36,0,0,0,533.09,451.38Z"/><path class="cls-22" d="M533.09,454.77c-2-1.14-3.59-.23-3.6,2a7.87,7.87,0,0,0,3.57,6.19c2,1.14,3.59.22,3.59-2.05A7.86,7.86,0,0,0,533.09,454.77Z"/><path class="cls-23" d="M138.37,297.1a8.88,8.88,0,0,0-1.75-.46h-.1a6,6,0,0,0-1.84,0h0a6,6,0,0,0-1.81.67l2.91-1.69,7.72-4.48a5.25,5.25,0,0,1,.63-.31,5.12,5.12,0,0,1,.59-.21l.53-.13h.08a4.36,4.36,0,0,1,.62-.07,4.73,4.73,0,0,1,.65,0,3.46,3.46,0,0,1,.49.06h.24a6.88,6.88,0,0,1,.9.2c.23.06.49.16.73.25l.31.11a.56.56,0,0,1,.16.07,12.41,12.41,0,0,1,1.76.86,57.5,57.5,0,0,1,8.75,7,60.81,60.81,0,0,0,9.15,7.18,16.18,16.18,0,0,0,2,1c.32.15.66.27,1,.39s.42.16.64.21a9.75,9.75,0,0,0,1.5.31l.24,0a8.12,8.12,0,0,0,1.56,0,12.81,12.81,0,0,0,2.87-.58l.28-.11a12.94,12.94,0,0,0,2.42-1.09L171,312.46l-.18.09a12.5,12.5,0,0,1-1.47.71,5.21,5.21,0,0,1-.76.27l-.29.12-.32.11a11.93,11.93,0,0,1-1.4.32c-.38.07-.75.11-1.14.15l-.19,0a8.81,8.81,0,0,1-.89,0c-.16,0-.32,0-.48,0a2,2,0,0,0-.28,0l-.19,0a9.75,9.75,0,0,1-1.15-.23l-.14-.05c-.21-.05-.44-.15-.65-.22a8.29,8.29,0,0,1-.79-.28l-.18-.09a18.85,18.85,0,0,1-2-1,59.88,59.88,0,0,1-9.16-7.18,57.86,57.86,0,0,0-8.75-7,13.67,13.67,0,0,0-1.93-.94Z"/><path class="cls-23" d="M193.47,300.38c-.37-.11-.7-.22-1-.29s-.56-.13-.82-.17-.82-.15-1.22-.19l-.49-.05a11.43,11.43,0,0,0-1.55,0l-.33,0a11.36,11.36,0,0,0-1.19.19l-.37.08c-.44.12-.85.26-1.27.42a.13.13,0,0,1-.1,0,10.76,10.76,0,0,0-1.4.7.33.33,0,0,1,.1-.06l7.74-4.5,2.71-1.58.11-.06a11,11,0,0,1,1.24-.61h0l.25-.08a9.32,9.32,0,0,1,.88-.33l.27-.06.38-.09.48-.1a5.92,5.92,0,0,1,.75-.09,2.7,2.7,0,0,1,.28,0h.14a9.9,9.9,0,0,1,1.22,0l.22,0a3.8,3.8,0,0,1,.46.05,6.43,6.43,0,0,1,.74.08c.17,0,.34.07.51.1s.52.09.77.16l.52.12.54.19c.49.15,1,.32,1.49.52.18.08.37.11.56.2a3.37,3.37,0,0,1,.38.19,31.81,31.81,0,0,1,3.25,1.63c8.65,5.26,20.08,13.78,30.43,19.75,1.42.82,2.81,1.57,4.19,2.29l1.12.55c1.06.55,2.11,1,3.15,1.46l.94.43a35,35,0,0,0,3.79,1.31c.57.16,1.09.28,1.63.39l.9.2a14.71,14.71,0,0,0,2.23.19h.33a8.76,8.76,0,0,0,2-.21l.16,0a7.07,7.07,0,0,0,1.89-.73.14.14,0,0,0-.08,0l-10.57,6.14a5.79,5.79,0,0,1-.71.34c-.26.11-.5.19-.78.28l-.32.07-.16,0c-.14,0-.25.07-.39.09a9,9,0,0,1-1.06.12h-.88c-.13,0-.25,0-.39,0a16,16,0,0,1-1.64-.17l-.18,0c-.29-.05-.62-.13-.93-.2s-.87-.16-1.32-.29c-.1,0-.19-.07-.29-.1a37.45,37.45,0,0,1-3.8-1.31l-.21-.08c-.24-.1-.48-.23-.7-.33-1-.44-2.08-.93-3.17-1.47-.38-.19-.75-.36-1.13-.57-1.36-.71-2.75-1.45-4.18-2.28-10.36-6-21.79-14.49-30.43-19.74a29.79,29.79,0,0,0-3.24-1.63c-.33-.14-.64-.28-1-.39C194.44,300.7,193.94,300.53,193.47,300.38Z"/><path class="cls-23" d="M291.79,269.14l-.4,0a13.94,13.94,0,0,0-1.57-.1h-.56a13.37,13.37,0,0,0-1.42.11c-.17,0-.34,0-.51.06a16,16,0,0,0-1.89.42l-.09,0a15.6,15.6,0,0,0-1.77.65c-.31.13-.61.29-.92.44s-.72.35-1.1.56l10.58-6.13.21-.13c.31-.17.62-.31.94-.46s.57-.29.86-.42l.08,0c.49-.2,1-.37,1.47-.52a3.4,3.4,0,0,1,.34-.12h0a14,14,0,0,1,1.64-.38l.21,0,.49,0c.31,0,.61-.09.91-.11h1.57c.33,0,.68.06,1,.1.17,0,.31,0,.48.05h.17a16.31,16.31,0,0,1,1.83.4h0a21.16,21.16,0,0,1,2.33.84h0a18.82,18.82,0,0,1,2.24,1.13,27.6,27.6,0,0,1,2.88,1.95c.29.22.56.45.84.67.8.64,1.6,1.35,2.41,2.13.16.15.31.26.48.42a2,2,0,0,0,.2.21c.56.58,1.14,1.22,1.73,1.86.24.27.48.49.71.77a1.14,1.14,0,0,0,.11.11c.28.33.57.71.86,1.05.45.55.9,1.09,1.36,1.67a1.84,1.84,0,0,0,.17.22c.3.4.61.84.91,1.25s.8,1,1.2,1.6c.08.15.2.31.27.45.4.55.79,1.15,1.16,1.74s.6.86.9,1.33c.11.18.22.38.34.55.49.77,1,1.57,1.45,2.39.26.42.51.79.75,1.23s.59,1,.9,1.54c2.28,4,4.4,7.94,6.45,11.79.19.35.39.7.57,1,.29.51.5,1,.77,1.48,4.88,9.28,9.21,18,13.14,26.15.16.33.33.7.5,1,.33.68.64,1.31.95,2,.63,1.3,1.22,2.55,1.84,3.81.85,1.81,1.72,3.58,2.54,5.31.57,1.18,1.11,2.32,1.66,3.47.94,1.92,1.85,3.78,2.77,5.61.48,1,.94,1.94,1.4,2.87,1.18,2.33,2.32,4.59,3.46,6.75.16.3.33.62.47.91,1.15,2.14,2.29,4.18,3.42,6.14.77,1.35,1.56,2.62,2.32,3.88.23.37.46.77.7,1.12,1,1.53,1.93,3,2.94,4.38.22.3.44.58.65.89.83,1.11,1.67,2.19,2.51,3.21l.67.83c1.08,1.24,2.14,2.4,3.25,3.49.84.81,1.72,1.54,2.59,2.26.38.32.75.69,1.12,1a35,35,0,0,0,3.95,2.66,33.61,33.61,0,0,0,3.66,1.81c.49.2,1,.35,1.52.54.76.27,1.5.56,2.28.77s1.6.38,2.41.55c.49.09.94.22,1.42.29a37.34,37.34,0,0,0,4.07.42c.6,0,1.19.09,1.81.18.15,0,.3.07.46.1s.6.12.9.19.55.1.82.17l.6.21c.53.16,1.06.35,1.62.56.24.1.46.14.71.24s.25.14.39.2a30.74,30.74,0,0,1,3.36,1.66,60.07,60.07,0,0,1,11.48,9l.52.48h0c2,1.91,3.9,4,5.81,6.2a1.92,1.92,0,0,1,.14.15.15.15,0,0,1,.05.07c1.75,2,3.49,4.16,5.23,6.37.08.13.2.24.29.36a2.43,2.43,0,0,0,.14.2c1.87,2.41,3.72,4.94,5.53,7.52l.22.28.08.14c2.17,3.09,4.28,6.28,6.34,9.5a1.28,1.28,0,0,1,.14.21c.07.1.12.2.18.3,2.53,4,5,8,7.29,12l.07.09c.08.13.15.25.22.39,1.44,2.46,2.83,4.92,4.18,7.35l.19.34c1.3,2.36,2.55,4.66,3.76,6.94l.4.72c.09.16.16.32.25.48.8,1.5,1.56,3,2.3,4.4l.73,1.42,1.67,3.24c.21.47.46.93.68,1.39.56,1.1,1.09,2.16,1.6,3.21.18.35.35.7.51,1,.65,1.3,1.27,2.57,1.86,3.77,0,.06.07.14.08.2.36.73.68,1.42,1,2.11.11.24.22.51.34.74.29.6.55,1.15.81,1.71.18.34.33.7.49,1s.31.67.47,1c2.14,4.59,3.48,7.64,3.79,8.38l-10.55,6.13c-.32-.74-1.71-3.9-3.92-8.64-.13-.24-.22-.47-.33-.72-.23-.48-.49-1-.73-1.52s-.37-.78-.55-1.2-.45-.94-.68-1.41-.51-1-.77-1.59c-.6-1.25-1.24-2.56-1.91-3.91l-.43-.87c-.55-1.12-1.12-2.27-1.72-3.45-.19-.37-.36-.74-.55-1.12-.66-1.31-1.36-2.66-2.06-4-.11-.19-.2-.37-.29-.56-.85-1.63-1.72-3.3-2.61-5l-.16-.3c-1.31-2.44-2.65-4.95-4.08-7.49,0-.09-.09-.18-.14-.27q-2-3.63-4.17-7.32c-.11-.2-.21-.39-.33-.58-2.33-4-4.77-8-7.3-12l-.29-.46c-2.06-3.24-4.19-6.43-6.37-9.53-.08-.13-.17-.25-.25-.37q-2.75-3.9-5.56-7.56c-.15-.2-.32-.39-.47-.6-1.74-2.22-3.5-4.38-5.27-6.4-1.94-2.27-3.93-4.4-5.92-6.35l-.13-.12a71.32,71.32,0,0,0-5.89-5.24c-.18-.15-.35-.27-.54-.41-.82-.64-1.64-1.26-2.46-1.83-1-.68-2-1.32-3-1.9a30.74,30.74,0,0,0-3.36-1.66c-.37-.16-.75-.31-1.12-.45-.53-.21-1.06-.39-1.61-.56s-.95-.26-1.43-.37c-.3-.07-.6-.14-.89-.19a16.17,16.17,0,0,0-2.27-.28c-1.34-.07-2.63-.2-3.88-.39l-.17,0c-.48-.08-.94-.2-1.41-.3-.73-.15-1.47-.26-2.17-.45a1.84,1.84,0,0,0-.25-.09c-.8-.22-1.57-.51-2.33-.79-.43-.17-.9-.28-1.31-.45a.53.53,0,0,1-.15-.08,30.48,30.48,0,0,1-3.67-1.81,34.92,34.92,0,0,1-4-2.65c-.47-.37-.93-.82-1.4-1.22-.77-.66-1.56-1.29-2.32-2a.1.1,0,0,0-.05,0c-1-.94-1.92-2-2.84-3-.13-.14-.25-.3-.37-.45s-.42-.49-.61-.73c-.46-.56-.93-1.1-1.39-1.69s-.78-1.07-1.18-1.61c-.2-.28-.42-.56-.63-.86s-.31-.4-.46-.62c-.79-1.16-1.61-2.36-2.41-3.61A.6.6,0,0,0,361,378c-.26-.38-.48-.8-.72-1.2-.68-1.09-1.37-2.17-2-3.32-.08-.15-.16-.32-.25-.48-1.12-1.92-2.23-3.92-3.34-6-.06-.12-.13-.23-.2-.35s-.27-.53-.4-.78c-1.13-2.15-2.27-4.37-3.43-6.68-.42-.87-.86-1.79-1.31-2.68q-1.47-3-3-6.07l-.4-.79c-.29-.62-.6-1.26-.88-1.87-1.17-2.4-2.35-4.85-3.54-7.37l-.92-1.89c-.56-1.19-1.17-2.44-1.76-3.65-1.83-3.77-3.72-7.66-5.73-11.68-.16-.33-.3-.64-.48-1-2.07-4.17-4.34-8.52-6.66-12.94l-1.56-3c-2-3.8-4.13-7.66-6.38-11.62-.59-1.06-1.17-2-1.77-3-.42-.7-.83-1.41-1.26-2.07s-.95-1.48-1.42-2.19c-.34-.49-.66-1-1-1.48-.53-.76-1.05-1.47-1.58-2.17l-.86-1.18c-.49-.64-1-1.22-1.48-1.81-.31-.38-.61-.78-.93-1.14s-.49-.54-.75-.81c-.6-.67-1.2-1.33-1.78-1.92-.24-.23-.45-.42-.69-.63a29.63,29.63,0,0,0-2.42-2.15l-.8-.64a28.08,28.08,0,0,0-2.9-2,22.93,22.93,0,0,0-2.27-1.14,18.35,18.35,0,0,0-2.31-.83A17.32,17.32,0,0,0,291.79,269.14Z"/><path class="cls-24" d="M298.44,271.54c-24.22-14-39.8,33-42.64,50.22-2,11.9-13.23,8.41-26.21.91-10.36-6-21.79-14.49-30.43-19.74-19.51-11.28-19.76,10.07-33.75,11.3a11.82,11.82,0,0,1-6.9-1.93,59.88,59.88,0,0,1-9.16-7.18,57.86,57.86,0,0,0-8.75-7c-5.53-3.19-10.47-2.31-14.2,10.3L473.61,507.33c-1.84-4.21-36.94-84.27-68.87-102.71a24,24,0,0,0-10.68-3.51,33.06,33.06,0,0,1-15.34-4.39c-21.63-12.48-31.44-50.42-60.66-102C311,282.27,304.48,275,298.44,271.54Z"/><path class="cls-25" d="M111.9,326.83c-1.54-.63-3-1.21-4.44-1.76l-1.24-.48-3.08-1.16-1.09-.39c-1.3-.48-2.56-.92-3.75-1.33l-.28-.08-3.21-1.07-1-.3-2.4-.74-.78-.23c-1-.29-2-.56-2.89-.81s-2-.53-3-.76c-.3-.06-.55-.13-.81-.19l-1.85-.42-.93-.19-1.39-.27-.83-.16-1.17-.19-.73-.1-.71-.11-.67-.09-.55-.05-.61-.06-.33,0-.52,0-.2,0h-.69l12.45-7.24h.91l.5,0,.32,0,.64.07.52,0c.21,0,.45,0,.68.08l.7.1L90,309l.31.05,1.15.19.85.15,1.37.28.93.19c.59.12,1.24.27,1.9.43.26.05.49.11.75.18.94.22,1.94.47,3,.77h.08c.88.23,1.79.5,2.75.78l.86.25,2.31.71c.35.1.67.22,1,.32l3.07,1,.41.13c1.19.41,2.42.84,3.69,1.3l1.21.44c1,.36,2,.72,3,1.11l1.33.51c1.43.55,2.88,1.13,4.4,1.74,1.68.69,3.28,1.25,4.84,1.76.44.14.85.27,1.26.38,1,.3,1.9.54,2.81.77s1.83.42,2.72.58,1.5.27,2.24.36,1.22.14,1.81.18c.82.06,1.63.1,2.41.1.46,0,.92,0,1.36,0,.89,0,1.76-.12,2.62-.23.3,0,.62-.06.91-.11a28.35,28.35,0,0,0,3.3-.74c.33-.11.64-.24,1-.34.76-.26,1.53-.52,2.26-.84s1.28-.61,1.9-.94,1.05-.49,1.57-.8l-12.46,7.24-.37.22c-.39.21-.79.38-1.17.57-.64.32-1.28.67-1.93.95l-.23.11c-.65.27-1.32.48-2,.7-.33.11-.66.26-1,.36l-.08,0a21.58,21.58,0,0,1-3,.69,1.57,1.57,0,0,1-.24,0c-.31.06-.64.08-1,.12-.61.08-1.22.18-1.86.22-.22,0-.46,0-.69,0-.45,0-.93,0-1.41,0s-.84,0-1.28,0-.72-.07-1.07-.1c-.61-.05-1.23-.11-1.87-.19-.34,0-.66,0-1-.1s-.78-.18-1.15-.25c-.9-.16-1.82-.36-2.76-.59-.39-.09-.75-.14-1.16-.25s-1.06-.33-1.6-.49l-1.33-.41C115.16,328.06,113.57,327.51,111.9,326.83Z"/><path class="cls-25" d="M175.41,306.33c-.2-.06-.39-.13-.59-.18l-.5-.1c-.3-.07-.6-.13-.9-.17l-.4,0a6.42,6.42,0,0,0-1,0h-.3a8.47,8.47,0,0,0-1.22.15l-.3.07a9.32,9.32,0,0,0-1,.3l-.31.11a9.46,9.46,0,0,0-1.29.61l.12-.07,5.11-3,7.22-4.2a.35.35,0,0,0,.12-.07,9.78,9.78,0,0,1,1-.5l.15-.05.28-.1c.18-.06.36-.14.54-.18s.31-.08.47-.12l.31-.07a.86.86,0,0,1,.17,0,7.71,7.71,0,0,1,.95-.12h.39a5.81,5.81,0,0,1,.59,0l.39,0,.4,0a3,3,0,0,1,.31,0c.2,0,.4.08.61.12l.5.11a1.72,1.72,0,0,0,.18,0l.4.14c.36.12.72.23,1.07.37a2.5,2.5,0,0,1,.25.09l.25.13a19.64,19.64,0,0,1,2.06,1,33.08,33.08,0,0,1,3.16,2.13l1.09.88c.7.57,1.42,1.15,2.13,1.77l1.23,1.11,2.11,2c.38.39.78.77,1.19,1.16.18.19.37.37.56.55l2.18,2.18,2.5,2.47,1.49,1.44c.65.63,1.29,1.22,1.91,1.81l1.34,1.19c.7.63,1.4,1.19,2.09,1.75.36.29.71.6,1.09.88a31.17,31.17,0,0,0,3.12,2.11,17.52,17.52,0,0,0,2,1l.5.22c.35.14.7.25,1.06.36l.51.16.48.1c.29.06.57.12.85.15l.38,0a7.44,7.44,0,0,0,.94,0h.29c.4,0,.78-.07,1.18-.13l.27-.07c.31-.08.63-.17.93-.28l.32-.1a8.23,8.23,0,0,0,1.2-.58l-12.44,7.24,0,0a10.21,10.21,0,0,1-1,.49l-.17.06a2,2,0,0,1-.32.11l-.44.16a4.31,4.31,0,0,1-.49.11c-.1,0-.19.06-.28.07l-.14,0c-.3,0-.61.09-.91.11H213l-.54,0-.4-.05-.39,0-.26,0c-.19,0-.39-.09-.59-.13s-.33-.05-.47-.09l-.15,0-.39-.14-1.05-.35-.23-.09c-.09,0-.17-.09-.25-.12a18.65,18.65,0,0,1-2-1,32.12,32.12,0,0,1-3.14-2.12l-1.1-.88c-.68-.56-1.37-1.12-2.08-1.74-.42-.39-.86-.78-1.29-1.19l-1.95-1.81-1.48-1.45-.44-.42c-.68-.69-1.37-1.36-2.06-2.05-.94-.94-1.89-1.88-2.82-2.79l-1.07-1c-.73-.73-1.48-1.43-2.23-2.11-.37-.35-.75-.69-1.12-1-.75-.66-1.48-1.27-2.23-1.86-.34-.27-.68-.57-1-.82a33.34,33.34,0,0,0-3.17-2.14,18,18,0,0,0-2.06-1l-.49-.21C176.12,306.55,175.77,306.44,175.41,306.33Z"/><g class="cls-4"><g class="cls-26"><g class="cls-4"><path class="cls-27" d="M249.42,241.47l12.46-7.24c-.25-.14-.49-.25-.72-.36l-12.46,7.24a5.37,5.37,0,0,1,.72.36Z"/><path class="cls-28" d="M248.7,241.11l12.46-7.24a5.93,5.93,0,0,0-.63-.22l-12.47,7.24a4.38,4.38,0,0,1,.64.22Z"/><path class="cls-29" d="M248.06,240.89l12.47-7.24-.52-.11-12.45,7.24.5.11Z"/><path class="cls-30" d="M247.56,240.78,260,233.54l-.49,0-12.45,7.25.49,0Z"/><path class="cls-31" d="M247.07,240.74l12.45-7.25h-.46l-12.46,7.24a3.68,3.68,0,0,1,.47,0Z"/><path class="cls-32" d="M246.6,240.74l12.46-7.24-.48.05-12.46,7.25a4.19,4.19,0,0,1,.48-.06Z"/><path class="cls-33" d="M246.12,240.8l12.46-7.25-.52.13-12.47,7.23.53-.11Z"/><path class="cls-34" d="M245.59,240.91l12.47-7.23a4.77,4.77,0,0,0-.57.2L245,241.12c.2-.08.37-.15.56-.21Z"/><path class="cls-35" d="M245,241.12l12.46-7.24h0a10.3,10.3,0,0,0-1.11.54l-12.45,7.24c.36-.2.73-.39,1.1-.55Z"/><path class="cls-25" d="M243.92,241.67l12.45-7.24,0,0-12.46,7.24,0,0Z"/></g></g></g><path class="cls-36" d="M281.62,334.24q-.51-1.62-1-3.27c-.26-.78-.49-1.58-.73-2.37-.33-1.11-.65-2.24-1-3.36-.25-.83-.49-1.65-.73-2.49s-.42-1.5-.64-2.25c-.32-1.17-.65-2.34-1-3.52l-.51-1.85c-.46-1.69-.93-3.38-1.38-5.08-.29-1.07-.58-2.12-.85-3.17-.47-1.75-.94-3.48-1.42-5.22-.7-2.64-1.41-5.26-2.11-7.87-.14-.55-.3-1.08-.44-1.64q-.84-3.09-1.68-6.11c-.1-.42-.22-.85-.35-1.26-.32-1.17-.64-2.32-1-3.46-.17-.65-.37-1.31-.55-2-.28-1-.56-1.95-.85-2.92-.23-.77-.45-1.55-.68-2.31s-.48-1.59-.72-2.37-.52-1.74-.79-2.58c-.21-.67-.42-1.32-.64-2-.28-.92-.57-1.84-.87-2.71-.13-.35-.25-.69-.37-1-.34-1-.68-2-1-3-.16-.44-.31-.86-.48-1.29-.29-.8-.59-1.58-.9-2.35s-.49-1.22-.73-1.81-.53-1.29-.8-1.9c-.17-.4-.36-.78-.54-1.16-.39-.86-.77-1.7-1.18-2.47a1.47,1.47,0,0,0-.06-.14c-.48-.92-1-1.75-1.43-2.54a1.09,1.09,0,0,1-.14-.23c-.49-.78-1-1.5-1.48-2.14l-.07-.08a14.43,14.43,0,0,0-1.08-1.2c-.23-.24-.46-.48-.69-.68a8.26,8.26,0,0,0-1.36-1l12.46-7.24A7.17,7.17,0,0,1,263,235c.09.08.18.19.27.27s.47.45.72.7.33.31.51.5.38.46.57.71c0,0,0,0,.05.05s0,0,0,0c.22.28.44.58.66.89s.44.64.66,1a2,2,0,0,0,.14.25,1.45,1.45,0,0,0,.12.19c.14.24.3.48.44.74.31.53.62,1.09.93,1.67l.05.12c0,.09.1.18.14.27.23.46.48.95.72,1.44.14.32.28.65.44,1l.48,1.06c.12.26.23.51.35.76s.32.81.49,1.2c.25.61.5,1.23.75,1.87.09.23.18.45.29.69.17.45.33.95.51,1.4s.39,1.06.59,1.59c.28.81.56,1.66.86,2.51.17.5.35,1,.52,1.5a3.21,3.21,0,0,1,.12.33c.19.58.38,1.19.57,1.79.27.84.55,1.66.82,2.54s.47,1.49.7,2.25.53,1.73.79,2.62.49,1.66.74,2.5.49,1.71.75,2.58.53,1.88.8,2.83.45,1.6.67,2.42c.06.23.14.46.2.69.13.5.27,1,.42,1.53.47,1.72.94,3.46,1.43,5.21.18.7.37,1.39.56,2.1l1.76,6.53c.63,2.35,1.26,4.71,1.9,7.06.18.67.37,1.34.54,2l1.91,7c.05.16.08.3.13.46.54,2,1.09,3.92,1.64,5.86.17.56.32,1.11.5,1.67.39,1.36.78,2.73,1.19,4.07.21.75.44,1.47.66,2.21.34,1.15.69,2.29,1,3.43.25.77.48,1.53.74,2.29.32,1.07.68,2.14,1,3.19.28.83.54,1.64.82,2.46s.53,1.54.79,2.28l.9,2.52c.26.7.5,1.4.77,2.08s.49,1.28.74,1.9c.5,1.31,1,2.57,1.53,3.79.25.58.49,1.17.74,1.73s.48,1.06.71,1.58c.36.76.7,1.5,1.05,2.22.21.42.41.83.63,1.25.46.88.9,1.74,1.36,2.55l.24.42c.56,1,1.12,1.89,1.68,2.75.12.15.21.3.31.44q.84,1.23,1.68,2.28l.3.36c.43.51.85,1,1.31,1.41.22.24.45.5.7.73a16.71,16.71,0,0,0,1.93,1.56,25,25,0,0,1,2,1.5l.68.62c.41.36.82.7,1.22,1.09,0,0,.05.06.07.08.68.67,1.33,1.37,2,2.12l0,.05q.88,1,1.77,2.16a0,0,0,0,1,0,0c.15.19.3.42.46.61.39.55.82,1.09,1.22,1.67a.5.5,0,0,1,.08.12c.34.49.67,1,1,1.49l.72,1.08a1.33,1.33,0,0,1,.06.12c.65,1,1.27,2,1.89,3.1l0,0c0,.06.07.13.1.2.67,1.15,1.31,2.32,2,3.53.07.14.15.27.24.42s.14.31.21.46c.94,1.76,1.83,3.57,2.73,5.42,0,.06.07.11.1.18s.14.3.2.45q1.25,2.6,2.46,5.29a.67.67,0,0,0,.06.12c.87,1.92,1.72,3.87,2.56,5.82a1.3,1.3,0,0,0,.08.17l.07.15c1.23,2.86,2.45,5.74,3.67,8.61q1.71,4.05,3.41,8c.14.36.3.7.45,1.05.74,1.73,1.52,3.46,2.27,5.15.07.17.15.31.21.47.7,1.56,1.42,3.07,2.12,4.57.15.31.3.64.46.94.8,1.68,1.62,3.3,2.44,4.88.19.33.37.68.54,1,.49.91,1,1.79,1.47,2.65.16.27.31.56.47.83.42.73.85,1.42,1.28,2.09l.47.78.5.75c.39.6.78,1.18,1.18,1.74.14.2.29.39.42.59l1.21,1.62c.18.22.37.43.54.63.35.44.72.86,1.07,1.27s.7.75,1.06,1.12l.81.81c.45.42.88.78,1.32,1.15.22.19.45.39.69.57a16,16,0,0,0,2.05,1.38,14.52,14.52,0,0,0,1.72.86c.24.1.46.17.7.26s.6.22.92.31.78.2,1.15.27l.36.07a12.5,12.5,0,0,0,1.63.16h.44a24,24,0,0,1,2.5.25c.09,0,.2.05.31.06l1,.21c.49.11,1,.18,1.48.33.21.05.39.14.6.19.65.2,1.31.44,2,.68.33.13.69.21,1,.35.14.06.26.15.4.21a36.42,36.42,0,0,1,3.91,1.94c1.15.65,2.26,1.38,3.35,2.13.34.23.65.49,1,.72.76.56,1.53,1.11,2.26,1.71.4.32.78.65,1.16,1,.66.55,1.3,1.11,1.94,1.69l1.19,1.1c.36.36.75.71,1.12,1.07.14.14.26.29.41.43,1.43,1.43,2.81,2.91,4.14,4.41a3.84,3.84,0,0,0,.27.29c.18.22.35.45.54.67,1,1.22,2,2.44,3,3.68l.46.54c.07.08.12.18.19.27q1.68,2.18,3.16,4.28c.11.15.22.29.31.44s.26.36.4.56c1.05,1.53,2,3,2.92,4.39a.56.56,0,0,1,.1.15c.24.36.42.67.64,1s.61,1,.88,1.42.43.72.65,1.07l.76,1.26a1.16,1.16,0,0,0,.14.24c.28.48.53.92.76,1.34l.19.32c.23.44.46.82.64,1.18a2.2,2.2,0,0,1,.15.26c.17.32.32.62.46.85h0c.17.33.29.56.35.66l-12.46,7.24c0-.08-.15-.31-.29-.56s-.3-.57-.5-.92l-.22-.39c-.16-.3-.35-.64-.56-1-.08-.14-.15-.27-.23-.43-.26-.45-.55-1-.87-1.5s-.53-.87-.79-1.33-.42-.69-.65-1.07-.55-.87-.82-1.32-.51-.82-.79-1.25c-.9-1.41-1.93-2.93-3-4.5-.18-.26-.37-.51-.55-.78-1-1.44-2.09-2.92-3.24-4.42-.2-.24-.39-.49-.58-.73-1-1.23-2-2.48-3.06-3.72-.27-.32-.53-.64-.81-1-1.32-1.5-2.7-3-4.14-4.41-.5-.5-1-1-1.53-1.49s-.79-.76-1.2-1.13c-.61-.55-1.24-1.09-1.86-1.62-.42-.35-.82-.71-1.25-1-.68-.56-1.39-1.08-2.1-1.59-.37-.28-.73-.57-1.12-.83-1.08-.75-2.19-1.47-3.33-2.13a38.54,38.54,0,0,0-3.92-1.94c-.47-.21-.95-.38-1.43-.56-.65-.24-1.3-.47-2-.67s-1.38-.37-2.07-.51c-.34-.08-.68-.16-1-.22a22.08,22.08,0,0,0-3.24-.32H362c-.45,0-.89-.07-1.34-.14h-.06l-.37-.08c-.32-.06-.65-.11-1-.2a1.15,1.15,0,0,0-.17-.06c-.3-.09-.61-.2-.9-.31s-.4-.12-.6-.2l-.12-.06c-.58-.25-1.16-.53-1.74-.85a19.73,19.73,0,0,1-2.06-1.4l-.6-.51c-.46-.38-.93-.77-1.39-1.2-.07-.07-.15-.13-.21-.2s-.36-.39-.55-.56c-.38-.4-.77-.8-1.16-1.23-.08-.1-.18-.19-.26-.29-.23-.25-.44-.54-.67-.8s-.42-.51-.64-.78l-.22-.28c-.27-.35-.54-.74-.81-1.1s-.43-.57-.64-.88l-.09-.11-.74-1.13c-.29-.39-.54-.78-.8-1.19a.21.21,0,0,0,0-.06,5.48,5.48,0,0,1-.31-.52c-.47-.74-.93-1.5-1.4-2.28l-.1-.18c-.12-.19-.22-.4-.32-.58-.51-.9-1-1.81-1.53-2.75-.08-.16-.18-.32-.26-.48s-.17-.32-.25-.47q-1.25-2.4-2.47-4.93c-.05-.09-.09-.16-.13-.25s-.19-.42-.29-.63c-.73-1.52-1.44-3.06-2.15-4.64-.08-.14-.13-.28-.2-.43-.76-1.69-1.52-3.43-2.28-5.18-.08-.16-.15-.32-.22-.48s-.14-.35-.23-.53c-1.15-2.67-2.29-5.37-3.44-8.08s-2.31-5.46-3.48-8.17c-.16-.35-.31-.72-.48-1.08q-1.17-2.7-2.34-5.35c-.07-.13-.13-.27-.2-.41-.75-1.66-1.5-3.27-2.26-4.87-.15-.3-.29-.62-.45-.93-.86-1.8-1.74-3.54-2.64-5.24-.17-.35-.35-.69-.52-1-.68-1.25-1.36-2.47-2-3.65,0,0,0,0,0,0-.63-1.09-1.28-2.14-1.93-3.16l-.53-.82c-.43-.63-.84-1.27-1.26-1.87-.32-.45-.63-.87-.95-1.3s-.54-.75-.8-1.1a.34.34,0,0,1-.06-.06c-.56-.74-1.14-1.44-1.74-2.12s-1.34-1.48-2-2.16c-.37-.36-.74-.68-1.12-1s-.54-.52-.83-.74c-.66-.55-1.33-1-2-1.51a17,17,0,0,1-1.78-1.4,1.45,1.45,0,0,1-.17-.18c-.21-.19-.42-.43-.64-.65s-.65-.64-1-1c-.13-.15-.26-.32-.4-.47l-.26-.33-.38-.45c-.34-.45-.67-.91-1-1.4l-.32-.46-.26-.41c-.15-.23-.31-.45-.46-.69-.4-.63-.8-1.29-1.19-2l-.09-.14c0-.08-.08-.16-.13-.24-.32-.57-.65-1.15-1-1.75l-.5-1c-.19-.36-.38-.73-.56-1.1s-.29-.56-.44-.86c-.22-.47-.44-1-.66-1.48s-.47-1-.7-1.55l-.29-.63c-.13-.32-.27-.68-.41-1q-.81-1.9-1.59-3.93c-.12-.31-.25-.59-.37-.89l-.32-.89c-.26-.68-.52-1.38-.78-2.08-.32-.89-.63-1.77-1-2.68-.23-.65-.46-1.31-.68-2s-.38-1.05-.55-1.61c-.14-.38-.26-.8-.39-1.19q-.48-1.44-.93-2.91C282.14,335.9,281.87,335.08,281.62,334.24Z"/><path class="cls-37" d="M249.42,241.47a4.72,4.72,0,0,0-4.4-.35c-19.62,8.26-11.78,82-27.87,91.12-3.49,2-7.15,1.29-10.91-.89-4.41-2.55-9-7.11-13.54-11.66s-9.18-9.17-13.66-11.75c-4.85-2.81-9.58-3.26-14,1.16-16.09,16.06-26,28.8-53.14,17.73s-38.48-11-39.07-11L409.37,510.1c-.73-1.41-14.6-28.21-33.51-39.13a28.9,28.9,0,0,0-13.65-4.22,13.75,13.75,0,0,1-6.5-1.92c-20.68-11.95-32-75.9-54.13-90.75C279.16,359,266.62,251.4,249.42,241.47Z"/><path class="cls-38" d="M165.42,369.14l-1.11-.46c-1.34-.55-2.77-1.09-4.3-1.61-1.82-.6-3.74-1.23-5.75-1.85-.22-.08-.46-.15-.7-.22-1.86-.6-3.82-1.2-5.83-1.81l-.61-.19-6.32-1.89c-.37-.11-.74-.22-1.13-.32-2-.59-4-1.17-6-1.74l-1-.3-6.42-1.82-1.27-.35L119.41,355l-1.43-.4-5.32-1.46-2.25-.62-3.49-.94c-10.07-2.73-17.75-4.73-19.72-5.25l-.39-.1L99.26,339l8.13,2.13.55.16c.74.18,1.5.4,2.32.61l1.64.44.7.18,5.23,1.41,1.14.31,4.23,1.15,1.52.42c1.94.52,3.92,1.07,5.95,1.63l.88.25,6.33,1.76.58.17,6.87,1.95.53.15c2.18.63,4.37,1.26,6.51,1.9l.71.2,6.64,2,.25.07c2.11.64,4.16,1.28,6.13,1.89a5.22,5.22,0,0,0,.56.18c2,.65,4,1.28,5.78,1.89,1.11.36,2.14.74,3.15,1.13.29.11.56.21.83.33l.78.3c.25.1.44.21.67.3.91.4,1.79.79,2.61,1.18l1,.46c1.06.53,2.07,1.07,3,1.6a64.32,64.32,0,0,1,7.42,5.05,52,52,0,0,0,5.22,3.8,11.39,11.39,0,0,0,1.31.65c.27.11.54.21.83.3.11,0,.24.09.37.12a7.66,7.66,0,0,0,1.12.22l.3,0c.34,0,.68,0,1,0h.28a7.79,7.79,0,0,0,1.31-.16c.22,0,.46-.1.67-.16l.92-.23c.52-.16,1.08-.37,1.66-.6l.41-.15c.68-.29,1.39-.62,2.17-1s1.72-.84,2.58-1.2a.61.61,0,0,0,.17-.07c1.05-.42,2.08-.79,3.09-1.09h.05a23.55,23.55,0,0,1,2.39-.56L218,370h0c.78-.13,1.56-.22,2.32-.27h.88c.41,0,.82,0,1.22,0,.21,0,.41.05.61.06l.75.08c.22,0,.44,0,.63.06.4.06.8.17,1.19.24l.59.13.24.06a17.92,17.92,0,0,1,1.83.62c.14.05.27.08.4.14l.08,0a21,21,0,0,1,2.43,1.2,26.59,26.59,0,0,1,2.51,1.71c.27.19.54.43.81.66.57.47,1.14,1,1.71,1.51.16.14.3.25.46.4s.38.41.56.6.62.65.93,1l.51.54c.26.3.52.65.79,1s.38.44.56.68l.3.37c.51.66,1,1.36,1.55,2.1a.09.09,0,0,1,0,0c.1.14.19.3.3.44.41.59.81,1.2,1.22,1.83.12.19.25.4.36.6s.42.67.63,1l.64,1c.21.36.41.75.63,1.12s.5.9.74,1.36c.13.24.26.45.39.7.46.85.92,1.74,1.38,2.66.6,1.22,1.23,2.38,1.85,3.51.13.21.25.44.38.65.62,1.09,1.25,2.12,1.91,3.1.15.25.32.49.47.72.58.86,1.17,1.69,1.76,2.48.12.16.23.33.36.49.69.91,1.41,1.77,2.12,2.58.42.49.85.91,1.28,1.37s.76.82,1.14,1.19a40.15,40.15,0,0,0,3.41,3l.82.64a38.6,38.6,0,0,0,3.53,2.35,34.66,34.66,0,0,0,3.57,1.76l1.05.43c.91.35,1.81.65,2.71.91.33.1.65.21,1,.29.94.24,1.87.44,2.81.6.15,0,.3.07.46.09,1.11.16,2.2.26,3.28.32h.82c.86,0,1.73,0,2.58,0,.33,0,.65,0,1-.06,1-.08,2.07-.2,3.08-.37.2,0,.4,0,.6-.08h0l.55-.07h.64l.59,0,.52.11.16,0,.11,0a8.17,8.17,0,0,1,1.05.36s0,0,0,0a12.07,12.07,0,0,1,1.35.67,21.56,21.56,0,0,1,2.16,1.49l.29.23a27.26,27.26,0,0,1,2.09,1.88,1.08,1.08,0,0,1,.2.16c.06.06.12.14.17.2.72.71,1.45,1.49,2.17,2.32a1.06,1.06,0,0,1,.15.15c.07.08.13.17.21.25q1.07,1.25,2.16,2.64a1.25,1.25,0,0,1,.09.12c.05.08.14.17.18.25.82,1.07,1.63,2.17,2.45,3.32l.06.1a.75.75,0,0,1,.13.18c1,1.39,1.94,2.84,2.89,4.32a1.28,1.28,0,0,0,.14.21,1.86,1.86,0,0,1,.11.19c1.25,2,2.47,4,3.65,6a.31.31,0,0,1,.05.1,1.4,1.4,0,0,1,.1.16c.76,1.32,1.51,2.64,2.23,3.94.1.17.2.33.28.49.72,1.28,1.4,2.54,2,3.78a2.25,2.25,0,0,1,.12.21l.13.26c.49.91,1,1.83,1.43,2.71l.12.26c.42.82.83,1.6,1.21,2.37.1.18.19.36.28.54.4.79.78,1.55,1.14,2.3.09.15.15.3.24.47.33.67.63,1.3.92,1.91,0,.05.05.11.08.15s0,.05,0,.08c.39.82.75,1.58,1.08,2.29a.62.62,0,0,1,.1.22c.33.67.61,1.28.85,1.8l.06.12c.48,1.06.81,1.78.92,2l-12.46,7.24c0-.07-.12-.26-.19-.43s-.18-.39-.3-.64l-.28-.63-.3-.63-.65-1.39c-.09-.2-.18-.41-.28-.62-.3-.61-.61-1.27-1-2-.07-.17-.16-.35-.25-.53l-.83-1.7-.26-.5c-.35-.74-.72-1.51-1.14-2.3-.07-.17-.17-.35-.26-.52-.38-.76-.77-1.53-1.19-2.33,0-.11-.1-.22-.15-.33-.45-.86-.93-1.75-1.4-2.65l-.29-.55c-.65-1.21-1.33-2.47-2-3.72a5.36,5.36,0,0,0-.28-.53c-.71-1.29-1.46-2.6-2.22-3.9L302,452c-1.17-2-2.4-4-3.64-6l-.27-.4c-.94-1.48-1.9-2.93-2.87-4.32-.07-.1-.14-.19-.2-.29-.8-1.15-1.62-2.24-2.43-3.31l-.3-.38c-.71-.92-1.43-1.79-2.14-2.63-.12-.13-.23-.27-.35-.41-.73-.83-1.46-1.6-2.19-2.32l-.34-.36c-.71-.68-1.42-1.31-2.12-1.88-.08-.08-.19-.14-.29-.22a19,19,0,0,0-2.15-1.49,10.46,10.46,0,0,0-1.34-.67,12.22,12.22,0,0,0-1.2-.41l-.17,0a7.23,7.23,0,0,0-1.09-.17h-.05a4.71,4.71,0,0,0-1.19.08l-.24,0-.37,0c-1,.17-2,.29-3.08.37-.16,0-.32.05-.47.06H273c-.86,0-1.71.05-2.6,0h-.59l-.21,0a30.58,30.58,0,0,1-3.28-.32h-.07l-.36-.08c-.94-.15-1.91-.36-2.86-.6-.11,0-.22,0-.34-.08s-.4-.14-.61-.2c-.91-.26-1.82-.58-2.72-.93l-.63-.21c-.13-.06-.26-.15-.39-.2a37.38,37.38,0,0,1-3.6-1.77,36.29,36.29,0,0,1-3.53-2.37l-.81-.61a40.64,40.64,0,0,1-3.42-3,.52.52,0,0,1-.11-.1c-.38-.37-.75-.8-1.13-1.2s-.78-.8-1.16-1.23l-.14-.16c-.62-.71-1.24-1.46-1.84-2.25l-.16-.21c-.13-.16-.24-.32-.37-.49-.35-.48-.71-.95-1.07-1.46-.23-.33-.45-.68-.69-1s-.3-.44-.45-.66-.21-.33-.33-.51c-.47-.75-.95-1.52-1.41-2.32-.05-.1-.12-.2-.16-.3l-.38-.66c-.29-.52-.58-1-.86-1.55s-.68-1.3-1-2c-.59-1.18-1.19-2.29-1.77-3.38-.24-.44-.48-.86-.71-1.29-.45-.78-.88-1.53-1.33-2.26-.19-.31-.37-.64-.56-.94-.56-.89-1.12-1.75-1.69-2.56a3.62,3.62,0,0,0-.22-.32c-.62-.89-1.23-1.72-1.87-2.52l-.59-.71c-.42-.53-.86-1-1.3-1.51s-.62-.68-.93-1l-1-1c-.58-.55-1.18-1.06-1.76-1.55l-.78-.63a22.86,22.86,0,0,0-2.52-1.71,19.83,19.83,0,0,0-2.5-1.22c-.13-.06-.28-.09-.41-.14a17.72,17.72,0,0,0-2.06-.68c-.19,0-.4-.07-.58-.11a16.87,16.87,0,0,0-1.84-.32l-.71-.08c-.64,0-1.27-.06-1.89,0-.2,0-.39,0-.6,0a23.14,23.14,0,0,0-5.32.93,30.54,30.54,0,0,0-3.11,1.11c-.9.37-1.81.78-2.72,1.25s-1.48.72-2.15,1a.15.15,0,0,1-.08,0c-.14.07-.27.1-.42.16-.55.21-1.08.41-1.56.57a1.42,1.42,0,0,0-.22.07c-.28.08-.54.12-.81.19l-.54.13-.15,0c-.39.06-.78.11-1.14.13h-.28c-.23,0-.47,0-.69,0l-.4,0-.3,0-.2,0a7.32,7.32,0,0,1-.91-.18h0l-.2-.07c-.28-.09-.58-.19-.86-.3l-.1-.05a13.41,13.41,0,0,1-1.32-.65,56.17,56.17,0,0,1-5.22-3.8,65.32,65.32,0,0,0-7.41-5.06c-.92-.53-1.93-1.07-3-1.6l-.9-.43C167.21,369.94,166.34,369.54,165.42,369.14Z"/><path class="cls-39" d="M218.7,379.56c-6.72-3.88-13.85-3.31-21.74.7-6,3-9.13,2.84-12.37,1a56.17,56.17,0,0,1-5.22-3.8A60.76,60.76,0,0,0,160,367.07c-24.69-8.23-70.78-20.2-73.2-20.83l228.6,132c-.94-2.1-18.94-42.21-32.72-50.17a7.45,7.45,0,0,0-5-1.2A33.26,33.26,0,0,1,254.74,423c-6.88-4-13.51-10.93-19-22.07S224.62,383,218.7,379.56Z"/><g class="cls-3"><path d="M91.57,419.15C64.13,435,64,460.67,91.25,476.52s71.62,15.85,99.06,0,27.6-41.52.32-57.37S119,403.29,91.57,419.15Z"/></g><path class="cls-40" d="M186.84,210.44s-2.68,6.59,5.54,11A9.36,9.36,0,0,0,186.84,210.44Z"/><path class="cls-41" d="M186.09,213.43s.85-2.63,4.84-6,5.88-3.17,9.13-4,5.24-.92,6.15.38c1.21,1.7-.2,5.21-6.61,7.41-6.62,2.25-6.95,8.79-8.18,9.61S185.3,215,186.09,213.43Z"/><path class="cls-41" d="M192.2,213.84c.4-.79,3.21.71,9.74-2,5.06-2.1-.35,3.07-1.53,3.62s-9.23,5.37-9.23,5.37S190.86,216.56,192.2,213.84Z"/><path class="cls-40" d="M116.37,196c-1-4.93,5.3-13.55,12.67-9.31,6.65,3.83,21.12,35.76,27.06,38.53,1.87.88,30.74-14.82,30.74-14.82s-2.37,5.69,5.54,11c0,0-32.36,23.52-40.57,18.9C137.73,232.43,119.24,210.13,116.37,196Z"/><path class="cls-41" d="M121.2,287.27s7.35,11.61,14.74,10.18,8.39-3,5.25-5-11.39-7.66-9.81-8.17,5,.24,4.68-1.28-10.83-3.52-10.83-3.52L118,283Z"/><path class="cls-42" d="M116.12,433.68c.42.09,23-.65,18,7.56a12.58,12.58,0,0,1-11.15,6.33c-3.38.1-9.55-1.81-11.09-.86s-9.18,6.1-13.56.94c-.89-1-1.47-4.08-.89-6S113.64,433.21,116.12,433.68Z"/><path class="cls-40" d="M134.09,441.24a12.58,12.58,0,0,1-11.15,6.33c-3.38.1-9.55-1.81-11.09-.86s-9.18,6.1-13.56.94a6.16,6.16,0,0,1-1-2.95c3,4.38,10.54,3.17,12.65,1.72a12,12,0,0,1,8.73-1.86c2.95.59,9.38-.12,12.57-3.14a5.09,5.09,0,0,0,1.48-5.31C134.68,437.22,135.55,438.83,134.09,441.24Z"/><path class="cls-43" d="M104.84,264s-19.11,17.16-5,57.52c3.09,8.8,9.22,27.52,7.18,36.72-2.44,11-6,7.91-8.6,44.47C96.16,435,96.57,428,95.8,441.05c-.21,3.75,13.91,7.65,16,1.86,9.33-25.3,22.27-78.31,19.63-107.54s-4.31-56.57-4.31-56.57S114,272.31,104.84,264Z"/><path class="cls-42" d="M159.72,453.36c.45,0,23.57-5,19.79,4.39a13.42,13.42,0,0,1-10.39,8.63c-3.45.73-10.14-.08-11.56,1.19s-8.39,8-13.77,3.5c-1.1-.91-2.24-3.92-2-6S157.07,453.35,159.72,453.36Z"/><path class="cls-40" d="M179.51,457.75a13.42,13.42,0,0,1-10.39,8.63c-3.45.73-10.14-.08-11.56,1.19s-8.39,8-13.77,3.5a6.27,6.27,0,0,1-1.58-2.84c3.9,3.93,11.43,1.29,13.31-.59a12.76,12.76,0,0,1,8.67-3.57c3.15.07,9.63-1.87,12.41-5.59a5.38,5.38,0,0,0,.6-5.74C179.42,453.51,180.61,455,179.51,457.75Z"/><path class="cls-44" d="M111.74,284.29s-15.87,16.38,12.53,57.86c0,0,13.79,29.51,13.31,38.94-.58,11.32-5.28,12.36-.68,49.32,4,32.08,2.33,32.77,4.89,35.45,2.7,2.85,16.17.08,16.64-5.62,2.52-31.4,7.58-77.55,4.66-106.75-3.36-33.54-5.82-61.1-5.82-61.1S122.17,290.83,111.74,284.29Z"/><path class="cls-45" d="M172.84,224.53s6.06-13.84-16.22-27.6-37.16-16.55-40.25-3.09-1.94,34.6-3.52,40.69c-3.86,14.77-5.21,19.11-10.29,26.28-8.53,12-10.36,27.35,27.28,37.62,6.6,1.81,29.07,8.17,29.29-8.13C159.83,239.88,166.76,240,172.84,224.53Z"/><path class="cls-40" d="M225.37,214.35s-.84,7.06,8.23,9.16A9.33,9.33,0,0,0,225.37,214.35Z"/><path class="cls-41" d="M232.07,222.82s2.68-.69,6.31-4.46,3.52-5.68,4.52-8.86,1.24-5.19,0-6.17c-1.63-1.31-5.21-.11-7.8,6.15-2.65,6.46-9.2,6.38-10.09,7.57S230.48,223.52,232.07,222.82Z"/><path class="cls-41" d="M232,216.69c.83-.34-.5-3.24,2.6-9.58,2.41-4.93-3.08.16-3.7,1.3s-5.92,8.88-5.92,8.88S229.23,217.87,232,216.69Z"/><path class="cls-42" d="M153.6,219c-2.26-4.5,1.54-14.46,9.78-12.31,7.42,1.94,29.76,28.94,36.23,30.07,2,.34,25.76-22.38,25.76-22.38s-.79,6.11,8.23,9.16c0,0-25,31.2-34.16,28.9C183.76,248.47,160.06,231.82,153.6,219Z"/><path class="cls-41" d="M157.84,180.23s-5.5,9.29-2.07,16.94c1.86,4.13-28,2.63-22.21-6.8,5.06-8.29,3.93-15.79-1.05-23.77Z"/><path class="cls-46" d="M155.14,187.25s-6-2.82-9.25-5.76l-.48.14-2.54.08-5.4-2.74s3.46,14,17.49,15.67A22.78,22.78,0,0,1,155.14,187.25Z"/><path class="cls-41" d="M166.85,139.11s4.81,7.36,5.94,20.46,1.13,23.14-6.47,27.11c-3.56,1.85-26.15,2.3-30.51-24.75C133,144.71,148.28,126.07,166.85,139.11Z"/><path class="cls-47" d="M171,141.84c6.25,4.23,11.07,6.68-1.52,10.93-10,3.37-8.61,17.32-12.31,19.1-2.08,1-1.13-2.62-4.12-5.45-1.4-1.33-5-2.24-5.83,3.33-.71,5.12,3.45,12.86.72,14.12-4.13,1.9-13-3.65-16.64-9.47-5.23-8.37-9-31,8.54-40C155,126.64,166,138.44,171,141.84Z"/></svg>