<svg id="Capa_1" data-name="Capa 1" xmlns="http://www.w3.org/2000/svg" xmlns:xlink="http://www.w3.org/1999/xlink" viewBox="0 0 600 600"><defs><style>.cls-1{fill:none;}.cls-2{opacity:0.1;}.cls-3{fill:#ede416;}.cls-4{fill:#fff35a;}.cls-5{fill:#bd37dd;}.cls-6{fill:#e578ff;}.cls-7{fill:#24b8d1;}.cls-8{fill:#0be1f7;}.cls-9{fill:#0a34bc;}.cls-10{fill:#1f64ff;}.cls-11{isolation:isolate;}.cls-12{fill:#5bb0ff;}.cls-13{fill:#3d93ff;}.cls-14{fill:#0e007a;}.cls-15{fill:#160f96;}.cls-16{fill:#ffaa83;}.cls-17{fill:#f29c79;}.cls-18{fill:#1d71bc;}.cls-19{fill:url(#linear-gradient);}.cls-20{fill:#f79f7c;}.cls-21{fill:#723e24;}.cls-22{opacity:0.4;}.cls-23{fill:#09b4c6;}.cls-24{opacity:0.5;}</style><linearGradient id="linear-gradient" x1="303.65" y1="333.1" x2="309.63" y2="476.63" gradientUnits="userSpaceOnUse"><stop offset="0" stop-color="#5ab0ff"/><stop offset="1" stop-color="#3c84f7"/></linearGradient></defs><title>register-ilustration</title><rect class="cls-1" width="600" height="600"/><path class="cls-2" d="M564.16,465.12c-8.09-12.35-20.69-23.93-37.9-33.87-36.47-21.05-85.6-30.19-133.07-27.51,0-12.95-3.94-25.91-12-38.19-9-13.77-23.07-26.67-42.25-37.75-44.21-25.52-105.11-35.37-162.17-29.62-36,3.64-70.54,13.5-98.29,29.64-32.1,18.65-49.71,42.51-52.93,66.9-4,30.08,13.94,60.95,53.78,83.95,45.24,26.12,107.94,35.85,166.09,29.2,3.56,21.44,19.5,42.33,47.94,58.74C347.62,597.94,429.9,603,493,581.79a184.9,184.9,0,0,0,34-15.18C574.24,539.18,586.57,499.21,564.16,465.12Z"/><path class="cls-3" d="M267.78,87.22c-.06.62-.1,1.24-.22,1.87s-.25,1-.39,1.56-.29,1.15-.48,1.71-.41,1-.63,1.48-.53,1.22-.86,1.83c-.24.43-.52.86-.78,1.28-.43.71-.88,1.4-1.39,2.08-.31.41-.64.81-1,1.21a32.81,32.81,0,0,1-2.5,2.69c-.33.32-.62.64-1,1-.56.51-1.2,1-1.83,1.5s-1.06.89-1.64,1.31-1.44,1-2.16,1.45-1.44,1-2.23,1.42a60.62,60.62,0,0,1-5.58,2.82c-.56.26-1.15.49-1.73.74-1.49.62-3,1.19-4.55,1.73-.61.21-1.21.43-1.84.63-1,.29-1.94.56-2.93.83-.79.21-1.58.45-2.38.64-1.07.26-2.16.47-3.24.7-.77.15-1.52.32-2.3.45-2.2.41-4.43.7-6.7,1-.72.07-1.43.11-2.15.17-1.31.11-2.61.21-3.92.27-.9,0-1.78.07-2.68.07s-2.05,0-3.08,0-1.93,0-2.89-.08-1.9-.09-2.86-.16-1.88-.14-2.81-.23-1.93-.21-2.9-.33-1.8-.24-2.67-.37c-1.06-.17-2.1-.35-3.15-.55-.82-.16-1.62-.31-2.44-.49-1.21-.27-2.4-.57-3.6-.89-.71-.18-1.43-.37-2.13-.57q-3.24-.93-6.3-2.13c-.3-.11-.59-.25-.89-.38a65.42,65.42,0,0,1-8-3.82C155.34,102.84,149.5,94,149.52,85.16l-.82,291c0,8.85,5.81,17.7,17.48,24.44a62.52,62.52,0,0,0,8.07,3.86c.17.07.3.16.47.23l.29.1c2.06.79,4.18,1.52,6.35,2.15l.54.18c.53.14,1.07.25,1.58.39,1.21.31,2.4.62,3.62.87.33.09.65.17,1,.24s1,.17,1.45.27c1,.2,2.08.38,3.13.54.43.06.84.16,1.27.22l1.43.16c.95.13,1.92.23,2.88.32.48,0,1,.12,1.44.16s.92.05,1.37.08l2.87.15,1.59.09c.44,0,.86,0,1.29,0,1,0,2.06,0,3.08,0,.57,0,1.12,0,1.69,0,.34,0,.65-.05,1-.07,1.3-.06,2.61-.15,3.92-.26.55-.05,1.1-.06,1.65-.11.17,0,.34-.06.51-.07,2.26-.24,4.5-.55,6.7-.94l.34,0c.67-.13,1.31-.29,2-.43,1.09-.21,2.17-.42,3.23-.69.78-.19,1.54-.39,2.29-.61,1.05-.29,2.08-.57,3.1-.89l.63-.18c.35-.11.68-.26,1-.39,1.6-.54,3.15-1.13,4.67-1.77.58-.24,1.17-.47,1.72-.72a62,62,0,0,0,5.58-2.83l.72-.43c.53-.31,1-.66,1.48-1,.74-.49,1.49-1,2.19-1.46s1.09-.86,1.63-1.29,1.26-1,1.84-1.51c.1-.11.24-.2.36-.31s.39-.44.61-.66a32.86,32.86,0,0,0,2.51-2.68c.16-.21.39-.4.55-.6s.26-.42.41-.61c.51-.68,1-1.37,1.38-2,.18-.3.42-.58.59-.88.08-.14.13-.31.21-.45.33-.61.6-1.23.86-1.85.16-.35.37-.7.51-1.06,0-.12.06-.25.1-.37.21-.59.35-1.18.51-1.76.1-.41.27-.8.34-1.21a3.16,3.16,0,0,0,0-.32c.11-.6.15-1.2.22-1.78s.12-.86.14-1.29v-.51l.83-291.06C267.92,86.07,267.83,86.64,267.78,87.22Z"/><path class="cls-4" d="M250.45,61.09c23.19,13.39,23.32,35.09.27,48.48s-60.53,13.39-83.71,0-23.34-35.11-.26-48.52S227.26,47.7,250.45,61.09Z"/><path class="cls-5" d="M244.26,246.23l-.82,163.36c0,8.84,5.81,17.69,17.48,24.43a62.52,62.52,0,0,0,8.07,3.86c.17.07.3.17.46.23l.3.1q3.09,1.2,6.36,2.16l.54.18c.51.14,1.05.24,1.57.37,1.2.32,2.4.63,3.63.88l1,.25c.48.09,1,.16,1.46.26,1.05.2,2.09.37,3.14.54l1.27.23c.46.06.95.09,1.42.15,1,.12,1.92.23,2.9.32.48.05.94.12,1.43.16s.91.06,1.38.08c.94.06,1.9.11,2.85.15l1.59.09c.44,0,.86,0,1.3,0,1,0,2.05,0,3.08,0,.56,0,1.13,0,1.68,0,.34,0,.66,0,1-.07,1.31-.06,2.62-.15,3.92-.26.56-.05,1.11-.06,1.65-.11.18,0,.34-.06.51-.07q3.39-.35,6.71-.93l.34-.05c.66-.13,1.3-.28,2-.42,1.08-.22,2.17-.43,3.23-.69.77-.19,1.53-.41,2.29-.61,1-.3,2.08-.58,3.1-.89l.63-.19c.36-.11.67-.26,1-.38q2.41-.82,4.68-1.77c.57-.25,1.15-.48,1.71-.73a60.89,60.89,0,0,0,5.59-2.83c.24-.14.49-.28.71-.43.54-.31,1-.66,1.48-1,.75-.49,1.51-1,2.19-1.47s1.1-.86,1.64-1.28,1.26-1,1.83-1.52c.11-.11.26-.2.37-.3s.39-.45.61-.67a36.47,36.47,0,0,0,2.5-2.68c.17-.21.39-.39.55-.61s.27-.4.43-.6c.49-.68.95-1.37,1.37-2.05.18-.29.43-.58.58-.88.09-.14.13-.3.22-.45.32-.61.59-1.22.86-1.84.16-.36.37-.71.5-1.06,0-.13.06-.26.11-.38.2-.58.35-1.18.5-1.76.11-.41.27-.8.34-1.21a2.87,2.87,0,0,0,.05-.31c.1-.61.14-1.2.2-1.79.05-.42.13-.85.15-1.28v-.52l.47-167.3C362.3,243.21,244.24,255.07,244.26,246.23Z"/><path class="cls-6" d="M345.19,222c23.19,13.39,23.31,35.09.28,48.48s-60.54,13.4-83.73,0-23.34-35.11-.27-48.52S322,208.6,345.19,222Z"/><path class="cls-7" d="M51,185.28V408.05c0,8.85,5.8,17.69,17.48,24.44a66.74,66.74,0,0,0,8.07,3.86c.16.07.3.16.48.22s.18.06.29.1c2,.8,4.17,1.51,6.35,2.15.18.05.35.13.53.18.52.15,1.06.25,1.58.39,1.2.31,2.41.62,3.62.89.33.07.64.17,1,.24s1,.16,1.46.24c1,.2,2.09.39,3.15.55l1.25.22c.48.08,1,.1,1.43.16,1,.11,1.93.23,2.9.33.47,0,1,.11,1.43.16s.92,0,1.37.07c1,.06,1.9.12,2.87.16.53,0,1.06.07,1.59.07s.87,0,1.29,0c1,0,2,0,3.07,0,.56,0,1.13,0,1.69,0l1-.06c1.32-.06,2.62-.16,3.92-.27.55,0,1.11-.05,1.66-.11L121,442c2.26-.24,4.49-.54,6.7-.94l.34,0c.66-.12,1.3-.28,2-.42,1.07-.22,2.17-.43,3.23-.69.77-.19,1.52-.41,2.29-.62,1.05-.28,2.08-.56,3.1-.89a6.52,6.52,0,0,0,.63-.18c.35-.1.68-.26,1-.39,1.6-.54,3.15-1.12,4.66-1.76.58-.25,1.16-.47,1.72-.73a58.26,58.26,0,0,0,5.58-2.83L153,432c.53-.32,1-.66,1.47-1,.75-.48,1.51-1,2.19-1.46s1.1-.86,1.63-1.3,1.27-1,1.84-1.51l.37-.29c.22-.22.39-.45.62-.67a34.25,34.25,0,0,0,2.49-2.68c.17-.19.39-.4.56-.6s.27-.41.41-.62c.51-.67.95-1.35,1.39-2,.17-.29.41-.58.58-.87s.13-.3.22-.45c.32-.61.59-1.23.85-1.84.16-.36.37-.72.51-1.09,0-.11,0-.23.1-.35.2-.59.36-1.19.5-1.78.11-.39.28-.79.35-1.19,0-.11,0-.22,0-.33.11-.59.15-1.19.21-1.78,0-.43.13-.86.16-1.29v-.52l.21-224.9C169.64,184.06,51,194.11,51,185.28Z"/><path class="cls-8" d="M152.15,159.24c23.19,13.39,23.32,35.09.28,48.48s-60.53,13.4-83.72,0-23.34-35.11-.27-48.51S129,145.86,152.15,159.24Z"/><path class="cls-9" d="M149.63,330.13l-.2,117.46c0,8.84,5.81,17.69,17.48,24.43a62.52,62.52,0,0,0,8.07,3.86c.16.07.3.16.47.23l.28.1c2.06.79,4.19,1.52,6.36,2.15l.54.17c.52.15,1.06.26,1.58.39,1.19.32,2.4.63,3.62.89l1,.23c.48.11,1,.17,1.46.26,1.05.2,2.1.39,3.15.55.42,0,.84.16,1.27.22l1.41.16c1,.12,1.94.23,2.9.32.48.05,1,.12,1.44.16s.91,0,1.37.07c1,.07,1.9.12,2.86.16l1.59.09c.43,0,.87,0,1.3,0,1,0,2.05,0,3.07,0,.56,0,1.13,0,1.69,0,.33,0,.66-.05,1-.08,1.31-.05,2.62-.14,3.92-.25.55-.05,1.11-.06,1.66-.11.16,0,.33-.06.51-.07,2.25-.25,4.48-.55,6.7-.94a1.88,1.88,0,0,0,.33-.05c.66-.11,1.31-.28,2-.41,1.09-.22,2.17-.44,3.23-.7.79-.18,1.53-.4,2.3-.61,1-.29,2.09-.57,3.1-.89l.63-.18c.35-.12.68-.26,1-.39,1.58-.54,3.14-1.13,4.65-1.77.58-.24,1.16-.47,1.73-.73a60.46,60.46,0,0,0,5.57-2.82c.26-.14.49-.28.74-.44.51-.3,1-.65,1.46-1,.74-.49,1.5-1,2.19-1.47s1.1-.85,1.63-1.28,1.27-1,1.83-1.51c.13-.12.26-.2.38-.32s.39-.43.61-.65a34.42,34.42,0,0,0,2.5-2.68c.17-.21.39-.4.56-.6s.26-.42.41-.61a24.51,24.51,0,0,0,1.37-2.06c.18-.29.43-.58.59-.87s.13-.31.21-.45c.33-.61.59-1.23.86-1.85a10.41,10.41,0,0,0,.5-1.07c.05-.11.06-.24.11-.36a16,16,0,0,0,.51-1.76c.1-.41.26-.8.34-1.21,0-.1,0-.21,0-.32.11-.59.16-1.19.21-1.78,0-.43.13-.86.14-1.29v-.52l.11-119C236.58,367.59,149.6,339,149.63,330.13Z"/><path class="cls-10" d="M250.54,305.9c23.2,13.38,23.32,35.08.28,48.47s-60.53,13.4-83.71,0-23.35-35.11-.28-48.51S227.36,292.5,250.54,305.9Z"/><path class="cls-8" d="M304,195c7.1-4.1,10.13-.23,10.15,5.22,0,7-4.4,15.23-11.36,27l-2.63,4.32v.14L315,223.05v4.26L293.91,239.5v-3.16l3.51-5.94c8.41-14.13,12.21-21.25,12.27-27,0-3.87-1.66-6.47-6.58-3.62-3,1.74-5.5,4.92-7,7.25l-1.45-2.8A29.11,29.11,0,0,1,304,195Z"/><path class="cls-8" d="M331,179.39c7-4,11,.83,11,12.93,0,12.91-4.11,22.46-11.44,26.69-6.5,3.75-10.86-.71-11-13.2C319.48,193.05,324.24,183.27,331,179.39Zm-.19,35.5c4.57-2.66,6.76-10.07,6.75-19.76,0-9.35-2.16-14.28-6.76-11.61-3.94,2.27-6.79,9.41-6.76,19.76,0,9.87,2.71,13.95,6.77,11.61Z"/><g class="cls-11"><path class="cls-8" d="M374.87,169.81c4.66-2.68,7.66-.32,7.68,6.91,0,8-3.63,14.1-7.84,16.52s-7.69.66-7.78-6.89S370.53,172.33,374.87,169.81Zm-.09,20.32c3-1.72,4.26-6.11,4.25-11.11,0-4.65-1.17-7.85-4.29-6.05-2.8,1.61-4.32,6.31-4.3,11.09s1.6,7.65,4.34,6.07Z"/><polygon class="cls-8" points="372.16 155.6 374.98 153.97 355.65 204.51 352.83 206.14 372.16 155.6"/></g><path class="cls-8" d="M361,173.42c0,8-3.63,14.1-7.9,16.57s-7.74.64-7.79-7,3.59-14,7.94-16.49C357.91,163.83,361,166.18,361,173.42Zm-12.14,7.37c-.06,4.87,1.51,7.65,4.3,6,3-1.72,4.26-6.07,4.25-11.11,0-4.61-1.17-7.81-4.3-6-2.79,1.62-4.26,6.28-4.25,11.07Z"/><polygon class="cls-8" points="191.24 303.33 191.34 340.7 187.1 343.16 187.01 310.48 186.9 310.55 181.28 317.3 180.4 313.96 187.49 305.5 191.24 303.33"/><path class="cls-8" d="M222.53,285.27v4.23l-12.4,7.15L208.93,307a22.49,22.49,0,0,1,2.64-1.77,12.33,12.33,0,0,1,7-2c2.56.21,4.66,2.19,4.69,6.94,0,7.29-5,15.66-12.11,19.73-3.52,2-6.53,2.65-8.11,2.4l1.11-4.5a12.57,12.57,0,0,0,7-1.93c4.14-2.38,7.69-7.56,7.68-12.57-.06-4.81-2.88-6.64-9.38-2.88a49.31,49.31,0,0,0-4.5,3l2-19.13Z"/><polygon class="cls-8" points="254.49 266.17 257.31 264.54 238.26 314.23 235.47 315.83 254.49 266.17"/><path class="cls-8" d="M257.2,280.08c4.54-2.62,7.48-.26,7.5,6.87,0,7.88-3.57,13.85-7.69,16.24s-7.57.6-7.66-6.82S252.88,282.57,257.2,280.08Zm-.09,20c2.9-1.66,4.16-5.93,4.14-10.9,0-4.53-1.15-7.68-4.18-5.93-2.78,1.61-4.28,6.24-4.27,10.94s1.6,7.46,4.31,5.89Z"/><path class="cls-8" d="M243.52,283.66c0,7.89-3.58,13.9-7.78,16.33s-7.56.61-7.66-6.91,3.54-13.71,7.86-16.2C240.48,274.26,243.5,276.53,243.52,283.66Zm-11.92,7.21c-.09,4.86,1.47,7.59,4.24,6s4.16-6,4.15-10.92c0-4.53-1.16-7.67-4.2-5.91-2.78,1.6-4.2,6.14-4.19,10.84Z"/><path class="cls-8" d="M36.08,109c6.86-4,9.78-.23,9.8,5,0,6.75-4.23,14.65-10.93,25.95l-2.52,4.17v.13L46.71,136v4.09L26.43,151.81l0-3,3.37-5.7c8.08-13.58,11.74-20.43,11.76-25.93,0-3.71-1.56-6.23-6.33-3.49-2.86,1.66-5.28,4.74-6.74,7l-1.36-2.72A27.84,27.84,0,0,1,36.08,109Z"/><path class="cls-8" d="M70.39,89.84V94l-12.14,7-1.18,10.07a23.87,23.87,0,0,1,2.6-1.72c2.42-1.4,4.88-2.23,6.84-2,2.5.21,4.56,2.18,4.58,6.78,0,7.12-4.88,15.31-11.79,19.3-3.48,2-6.43,2.57-7.94,2.3l1.06-4.36a12.18,12.18,0,0,0,6.79-1.9c4.07-2.35,7.55-7.4,7.54-12.3-.08-4.67-2.82-6.48-9.19-2.79a46.19,46.19,0,0,0-4.41,3l2-18.74Z"/><polygon class="cls-8" points="101.59 71.19 104.33 69.61 85.77 118.18 83.01 119.76 101.59 71.19"/><path class="cls-8" d="M104.24,84.83c4.45-2.56,7.35-.32,7.37,6.64,0,7.72-3.49,13.54-7.57,15.9s-7.38.63-7.44-6.64S100,87.26,104.24,84.83Zm-.09,19.52c2.83-1.62,4.1-5.88,4.09-10.67,0-4.47-1.17-7.53-4.14-5.81-2.67,1.54-4.14,6.06-4.12,10.66s1.53,7.35,4.17,5.82Z"/><path class="cls-8" d="M90.87,88.33c0,7.67-3.49,13.54-7.61,15.91-4,2.3-7.37.6-7.44-6.72s3.42-13.42,7.64-15.86C87.9,79.1,90.85,81.37,90.87,88.33Zm-11.63,7c-.1,4.7,1.46,7.35,4.13,5.8,2.83-1.63,4.1-5.82,4.09-10.68,0-4.43-1.17-7.48-4.14-5.76-2.67,1.54-4.09,6-4.08,10.64Z"/><path class="cls-8" d="M181.92,66.53l4.2-2.44v3.65l-4.2,2.43,0,9.33-3.79,2.19,0-9.32-13.92,8v-3.1l13.3-29.66,4.36-2.52Zm-3.83-9.32c0-1.79,0-3.59.12-5.44l-.14.09c-.93,2.52-1.65,4.4-2.48,6.47l-7.28,15.93v.12l9.81-5.66,0-11.51Z"/><path class="cls-8" d="M199.15,34.6c6.29-3.64,9.9.72,9.93,11.67,0,11.71-3.71,20.31-10.34,24.14-5.84,3.36-9.83-.61-10-11.94C188.75,47,193.08,38.1,199.15,34.6ZM199,66.65c4.15-2.39,6.1-9,6.07-17.85,0-8.45-1.94-12.92-6.11-10.5-3.56,2.05-6.1,8.49-6.08,17.86,0,9,2.42,12.63,6.12,10.49Z"/><polygon class="cls-8" points="242.93 7.15 246 5.37 225.23 59.55 222.2 61.31 242.93 7.15"/><path class="cls-8" d="M245.89,22.31c5-2.86,8.16-.28,8.18,7.48,0,8.63-3.89,15.12-8.39,17.72s-8.25.66-8.35-7.43S241.18,25,245.89,22.31Zm-.1,21.79c3.15-1.81,4.53-6.48,4.52-11.89,0-4.94-1.25-8.38-4.57-6.46-3,1.75-4.66,6.79-4.65,11.91s1.76,8.14,4.7,6.44Z"/><path class="cls-8" d="M231,26.21c0,8.62-3.89,15.18-8.48,17.81-4.43,2.56-8.25.67-8.35-7.53S218,21.55,222.7,18.83C227.66,16,231,18.45,231,26.21Zm-13,7.88c-.1,5.29,1.59,8.28,4.62,6.53s4.53-6.54,4.52-11.9c0-4.94-1.26-8.37-4.58-6.46C219.52,24,218,29,218,34.09Z"/><path class="cls-12" d="M478.69,550.29s4.86,11.07,12.55,7.28S495,550.36,513.61,547s23-16.62,23-19.83c-.1-5.35-9.39-10.3-43.14,3.7Z"/><path class="cls-13" d="M491.25,557.57c7.7-3.82,3.71-7.23,22.38-10.55s23.43-16.65,23-19.83c-.06-.37,0-1.39-.48-1.86-5.21,13.55-15.58,15.28-23,16.84-7.64,1.6-12.49,4.33-20.13,10.16s-10.93-1.52-10.93-1.52a4.44,4.44,0,0,0-2.33,1.37C481.52,555.17,485.61,560.33,491.25,557.57Z"/><path class="cls-12" d="M471.2,519.63s4.85,11.09,12.55,7.29,3.72-7.22,22.36-10.52,23.45-16.66,23-19.83c-.34-2.39-9.39-10.32-43.15,3.7Z"/><path class="cls-13" d="M483.76,526.91c7.71-3.8,3.71-7.22,22.37-10.52s23.43-16.66,23-19.84a2.41,2.41,0,0,0-.81-1.33c-5.22,13.55-15.23,14.75-22.65,16.31-7.63,1.59-12.5,4.33-20.13,10.16s-10.91-1.53-10.91-1.53a4.33,4.33,0,0,0-2.36,1.38C474,524.52,478.14,529.66,483.76,526.91Z"/><path class="cls-14" d="M317.34,479.06s8.34-13.32,7-25.75c0,0,75.07-19.37,88.33-14.48,12.66,4.66,58.81,40.72,78.69,58.29,6.37,5.61-9.62,33.8-20.08,27.35C452.44,512.81,404,474.86,404,474.86S338.88,512.13,317.34,479.06Z"/><path class="cls-15" d="M311.21,461.45s76.42,2.33,99.93,11.26c23.35,8.87,60.06,37.23,81.69,57.56,4.57,4.31-8.6,22.43-14.57,20.47-42.93-14.11-61.5-38.15-84.48-44.64-15.48-4.39-48.12,3.81-64.13,5.36-19.33,1.86-59.89-12.59-59.89-49.43Z"/><path class="cls-16" d="M402.16,394.87s3-2.36,9.94-3.26,8.75.77,12.81,2.23,7,3,6.2,5-9.85,5.53-15.4,4.28c-3.41-.77-11.9,4.08-13.86,4.13S400.07,396.05,402.16,394.87Z"/><path class="cls-17" d="M401.85,407.27c2,0,10.45-4.9,13.86-4.13,4,.89,9.78-.67,13-2.36a1.69,1.69,0,0,0-.13-.27c-.87-1.14-3.79-.25-5.65-.7s-7.62,0-11.34-.56-10.44,3.68-10.44,3.68l-.64.43C400.63,405.54,401.06,407.28,401.85,407.27Z"/><path class="cls-18" d="M316.41,336.85s10.86-14.48,22.18,1.2c7.33,10.16,20.06,51,24.71,54.38,2.28,1.68,40.29-.36,40.29-.36s-5.6,5.69,2,16.42c0,0-49.23,16.59-57.56,6.57C333.82,397.86,309.71,354.26,316.41,336.85Z"/><path class="cls-19" d="M338.15,420c-.13-1.33-.33-2.94-.45-4.93a1.2,1.2,0,0,0,0-.19c-.26-6-.94-11.89,5.48-26.54,4.36-9.95,4.36-24,1.16-33.32-1.63-14.84-9.38-24.6-13.41-27.53-6.11-4.42-59,18.63-60.42,19.72-19.41,14.44,7.77,41.2,1.5,88.69-3.3,25-1.59,26.39-1.59,26.39,37,17.38,76.44-14.37,76.44-14.37a34.73,34.73,0,0,1-2.21-3.71C342.62,438,338.76,425.76,338.15,420Z"/><path class="cls-20" d="M319.14,321.69s-2.63,13,.33,19.78-7.36,9.15-12.32,7.53-12.81-4.91-11.85-9.32,5.13-18.87,2.19-23.95S319.14,321.69,319.14,321.69Z"/><path class="cls-16" d="M293.36,282.21s-14.59,15-10.31,30.44c2.36,8.54,12.33,14,18,18.26s20,14,25.64,3.68,12-40-.9-52.93S293.36,282.21,293.36,282.21Z"/><path class="cls-21" d="M326,288s-9.35,1.06-21,13.59c-3.82,4.09-4.24,17.79-8.66,13.6-1.68-1.6-6.05-4.72-6.52-2.28-2.28,11.66,15.45,15.24,12,22.55-1.06,2.21-29.74-7.61-26.77-40.07,1.49-16.29,12.2-27.84,35.51-26.35,18.27,1.16,19.8,19.13,19.8,19.13S329.82,287.55,326,288Z"/><path class="cls-16" d="M307.29,447.68s3.95-.49,10.56,2.44,7.34,5.4,10.15,8.91,4.56,6.45,2.79,7.83-11.7-.36-15.93-4.47c-2.63-2.55-12.73-2.77-14.5-3.81S304.81,447.61,307.29,447.68Z"/><path class="cls-17" d="M300.36,458.58c1.77,1,11.87,1.26,14.5,3.81,3,2.94,9,4.67,12.8,4.9a1.6,1.6,0,0,0,0-.3c-.16-1.49-3.23-2.29-4.65-3.69s-6.76-4.09-9.72-6.6-11.23-2.36-11.23-2.36l-.82,0C300.22,456.39,299.67,458.19,300.36,458.58Z"/><path class="cls-12" d="M267.94,348.11c3.58-2.06,11.28-3.93,13.19,9S270.2,418,272.5,423.6c1.12,2.74,38.52,21.13,38.52,21.13s-8,2.07-7,15.76c0,0-52.5-11.71-54.48-25.16C246.13,412.25,251.11,357.77,267.94,348.11Z"/><g class="cls-22"><polygon class="cls-8" points="390.91 372.09 391.25 493.51 551.49 402.26 551.14 280.84 390.91 372.09"/></g><path class="cls-23" d="M471.82,353.23c9.78-5.66,16.08,13.33,17.21,20.26.81,4.8,5.34,3.4,10.59.38,4.17-2.42,8.79-5.86,12.28-8,7.88-4.55,8,4.06,13.62,4.56a4.77,4.77,0,0,0,2.78-.77,24.33,24.33,0,0,0,3.69-2.91,23.07,23.07,0,0,1,3.54-2.81c2.23-1.3,4.23-.94,5.74,4.15L401.12,448.4c.74-1.7,14.91-34,27.8-41.46a9.7,9.7,0,0,1,4.3-1.42,13.4,13.4,0,0,0,6.2-1.78c8.73-5,12.69-20.34,24.48-41.17C466.75,357.54,469.38,354.63,471.82,353.23Z"/><g class="cls-24"><path class="cls-8" d="M475.31,342.9a1.64,1.64,0,0,1,1.56-.13c7,2.94,4.2,29.19,9.92,32.44a3.71,3.71,0,0,0,3.88-.31,26.81,26.81,0,0,0,4.83-4.16,26.1,26.1,0,0,1,4.86-4.18c1.73-1,3.42-1.17,5,.42,5.74,5.71,9.25,10.25,18.93,6.3s14.74-4,15-4L418.36,438.55c.25-.51,5.19-10.05,11.92-13.94a10.12,10.12,0,0,1,4.87-1.51,4.8,4.8,0,0,0,2.31-.69c7.37-4.25,11.4-27,19.27-32.29S469.18,346.42,475.31,342.9Z"/></g><path class="cls-8" d="M454.4,397.42c3.18-1.83,6.56-1.56,10.31.33,2.83,1.45,4.32,1.34,5.86.46a25,25,0,0,0,2.48-1.79,28.26,28.26,0,0,1,3.52-2.4,29.85,29.85,0,0,1,5.66-2.52c11.72-3.9,34.71-9.81,35.87-10.11L408.53,444.21c.45-1,9-20,15.52-23.8a3.61,3.61,0,0,1,2.39-.56A15.76,15.76,0,0,0,437.3,418c3.28-1.89,6.41-5.19,9-10.46S451.59,399,454.4,397.42Z"/></svg>